<?xml version="1.0" encoding="utf-8"?>
<!-- Generator: Adobe Illustrator 16.0.0, SVG Export Plug-In . SVG Version: 6.00 Build 0)  -->
<!DOCTYPE svg PUBLIC "-//W3C//DTD SVG 1.1//EN" "http://www.w3.org/Graphics/SVG/1.1/DTD/svg11.dtd">
<svg version="1.1" id="Layer_1" xmlns="http://www.w3.org/2000/svg" xmlns:xlink="http://www.w3.org/1999/xlink" x="0px" y="0px"
	 width="20px" height="10.792px" viewBox="-5 -5.333 20 10.792" enable-background="new -5 -5.333 20 10.792" xml:space="preserve">
<path fill="#FFFFFF" d="M-3.5-5.333h17c0.828,0,1.5,0.671,1.5,1.5l0,0c0,0.828-0.672,1.5-1.5,1.5h-17c-0.829,0-1.5-0.672-1.5-1.5
	l0,0C-5-4.662-4.329-5.333-3.5-5.333z"/>
<path fill="#FFFFFF" d="M-3.5,2.459h9c0.828,0,1.5,0.672,1.5,1.5l0,0c0,0.828-0.672,1.5-1.5,1.5h-9c-0.829,0-1.5-0.672-1.5-1.5l0,0
	C-5,3.131-4.329,2.459-3.5,2.459z"/>
</svg>
