<svg width="67890678" height="1" viewBox="0 0 200 400" fill="none" xmlns="http://www.w3.org/2000/svg">
<path d="M82.5 375.5C20.9106 375.5 23.5 345 -22 353C-67.5 361 -85.0002 342.5 -78 282.5C-70.9998 222.5 -140.5 236.5 -114 186C-87.5 135.5 -52.5 123 -98.5 55.5C-144.5 -12 -8.00002 -3.99997 -8.00002 -3.99997L221.5 -3.99991C221.5 -3.99991 277.346 3.50003 275.5 55.5C273.654 107.5 214.5 126 264.5 206C314.5 286 272.71 323.356 232 312C137 285.5 153.5 375.5 82.5 375.5Z" fill="url(#paint0_linear)"/>
<defs>
<linearGradient id="paint0_linear" x1="48.5002" y1="419" x2="218" y2="-44.9996" gradientUnits="userSpaceOnUse">
<stop stop-color="#2da34f"/>
<stop offset="1" stop-color="#46bd68"/>
</linearGradient>
</defs>
<path d="M41.4871 364.648C24.8701 346.694 20.1551 338.599 -8.52342 336.62C-103 330.1 -173.5 159.5 -35.5 81C102.5 2.50005 73.0282 -39.4855 167.934 -21.0441C262.841 -2.60277 258.285 110.453 296.788 187.633C335.29 264.814 315.795 341.559 259.851 323.032C220.858 310.118 138.408 318.615 117.782 352.868C97.1565 387.12 62.2583 387.09 41.4871 364.648Z" stroke="#82F7FF" stroke-width="0.3"/>
<path d="M65.7292 370.412C38.791 337.64 13.566 350.563 11.1442 350.396C-54.7708 365.267 -72.7152 325.585 -38.4406 234.418C-4.16602 143.25 -80.743 51.8875 4.4998 36C144 9.99998 88.7416 -45.3316 175.3 -30.2428C261.858 -15.154 279.13 93.0461 319.261 152.094C359.391 211.142 365.585 274.189 340.744 310.918C315.904 347.648 269.202 303.858 230 296C190.798 288.143 151.908 320.477 142.252 348.743C132.596 377.008 92.6675 403.185 65.7292 370.412Z" stroke="#82F7FF" stroke-width="0.3"/>
</svg>
