<svg width="96" height="85" viewBox="0 0 96 85" fill="none" xmlns="http://www.w3.org/2000/svg">
<path d="M33.3668 27.3175C31.0903 27.3496 16.9993 26 11.0001 37C7.85307 45.7949 11.0004 50 16.9997 57.5C22.999 65 13.5 74 33.3668 74C46.8668 93.5 67.9997 84.5 60.9998 59.3907C58.7531 43.9424 57.9861 26.9773 33.3668 27.3175Z" fill="url(#paint0_linear)"/>
<path d="M58.9079 44.4987C57.2911 38.5906 54.6798 33.0028 51.1865 27.9764C45.9081 20.3239 41.2611 8.95965 55.8078 4.50979C78.6285 -2.46879 102.65 2.13939 94.3038 19.988C85.9573 37.8367 87.4764 42.6652 86.0853 53.3128C84.8414 62.8436 64.9758 66.9362 58.9079 44.4987Z" fill="url(#paint1_linear)"/>
<path d="M46.7251 5.96025C46.7251 5.96025 40.5996 14.1797 13.2899 25.4391C-14.0198 36.6985 5.70721 56.6031 33.4586 59.2602C61.2099 61.9173 91.9333 82.4316 94.5875 54.0487C97.2417 25.6659 84.453 26.1002 73.7788 12.2585C63.1045 -1.58312 55.3661 -3.22829 46.7251 5.96025Z" stroke="url(#paint2_linear)" stroke-width="0.5" stroke-miterlimit="10"/>
<g style="mix-blend-mode:multiply">
<path d="M79.0532 11.4798H25.1934V80.0119H79.0532V11.4798Z" fill="#E6E7E8"/>
</g>
<path d="M81.2061 9.40036H27.3462V77.9325H81.2061V9.40036Z" fill="white"/>
<path d="M53.4096 15.8847H35.27V34.0736H53.4096V15.8847Z" fill="#F9FBFC"/>
<path d="M51.0735 35.4641H37.5146C37.7408 30.8602 40.6894 27.2169 44.2951 27.2169C47.9009 27.2169 50.8473 30.8602 51.0735 35.4641Z" fill="url(#paint3_linear)"/>
<path d="M45.9357 24.6133V27.418C45.9357 27.8436 45.7671 28.2517 45.467 28.5526C45.1669 28.8535 44.7599 29.0225 44.3355 29.0225C43.9111 29.0225 43.5041 28.8535 43.204 28.5526C42.9039 28.2517 42.7354 27.8436 42.7354 27.418V24.6133H45.9357Z" fill="#FFC8AF"/>
<path d="M45.9357 24.6133V26.5837C45.4709 26.9166 44.9166 27.1009 44.3454 27.1123C43.7743 27.1238 43.2131 26.9619 42.7354 26.6478V24.6133H45.9357Z" fill="#F4B69D"/>
<path d="M47.5785 23.8346C48.0239 23.8346 48.385 23.3767 48.385 22.812C48.385 22.2472 48.0239 21.7893 47.5785 21.7893C47.1331 21.7893 46.772 22.2472 46.772 22.812C46.772 23.3767 47.1331 23.8346 47.5785 23.8346Z" fill="#FFC8AF"/>
<path d="M47.4911 22.3777C47.4911 22.3777 47.9818 22.3777 47.9413 22.72C47.9007 23.0623 47.6895 23.1158 47.666 23.2826C47.6426 23.4495 47.4527 23.4795 47.4207 23.2035C47.3887 22.9275 47.3012 22.2493 47.4911 22.3777Z" fill="#F4B69D"/>
<path d="M41.8181 22.8098C41.8181 23.3062 41.5364 23.7212 41.1673 23.8132C41.1164 23.826 41.0641 23.8324 41.0116 23.8324C40.9693 23.8325 40.9271 23.8282 40.8857 23.8196C40.4995 23.7426 40.2051 23.3211 40.2051 22.8098C40.2051 22.2472 40.5657 21.7893 41.0116 21.7893C41.4575 21.7893 41.8181 22.2493 41.8181 22.8098Z" fill="#FFC8AF"/>
<path d="M41.0668 22.3777C41.0668 22.3777 40.5761 22.3777 40.6166 22.72C40.6572 23.0623 40.8684 23.1158 40.8919 23.2826C40.9153 23.4495 41.1052 23.4795 41.1372 23.2035C41.1692 22.9275 41.2567 22.2493 41.0668 22.3777Z" fill="#F4B69D"/>
<path d="M47.5784 22.613C47.5784 24.7823 46.1084 26.543 44.2927 26.543C42.923 26.543 41.7495 25.5418 41.2545 24.117C41.0882 23.6354 41.0038 23.1291 41.0049 22.6194C41.0049 22.5488 41.0049 22.4782 41.0049 22.4055C41.0966 20.3303 42.5325 18.6852 44.2885 18.6852C46.1084 18.683 47.5784 20.4416 47.5784 22.613Z" fill="#FFC8AF"/>
<path d="M40.9005 21.6653C40.9005 21.6653 40.7895 22.536 41.0669 22.3777C41.3442 22.2194 41.1309 21.8236 41.3272 21.4834C41.5046 21.2379 41.6062 20.9456 41.6195 20.6427C41.6429 20.2854 42.3982 19.19 43.7146 19.7869C45.0311 20.3838 45.9314 19.6928 46.0722 20.0372C46.2131 20.3817 46.2984 21.0235 46.8446 21.2973C47.3908 21.5711 47.2884 22.7285 47.5785 22.6173C47.8687 22.506 47.6724 21.6888 47.7087 21.4749C47.745 21.2609 48.385 20.6705 48.385 19.4981C48.385 16.9801 46.772 16.7897 45.7287 17.01C43.7722 17.4379 43.4842 17.4058 42.8527 17.5342C42.2211 17.6625 41.005 18.5675 41.005 19.4831C41.005 20.5122 40.7191 20.3539 40.8151 20.7668C40.8992 21.0583 40.9282 21.3631 40.9005 21.6653Z" fill="#112B46"/>
<path d="M33.9238 14.6674V35.4641H54.6643V14.6674H33.9238ZM53.4097 34.0735H35.2744V15.889H53.4097V34.0735Z" fill="url(#paint4_linear)"/>
<path d="M74.6302 40.513H33.9238V43.399H74.6302V40.513Z" fill="#D4EBF8"/>
<path d="M52.1275 44.9693H33.9238V47.8553H52.1275V44.9693Z" fill="#D4EBF8"/>
<path d="M70.3311 51.0429H33.9238V53.9289H70.3311V51.0429Z" fill="#D4EBF8"/>
<path d="M61.4064 55.4992H33.9238V58.3852H61.4064V55.4992Z" fill="#D4EBF8"/>
<path d="M55.667 61.5728H33.9238V64.4588H55.667V61.5728Z" fill="#D4EBF8"/>
<path d="M71.8566 66.0291H33.9238V68.9151H71.8566V66.0291Z" fill="#D4EBF8"/>
<path d="M74.6279 18.3364H56.4243V21.2224H74.6279V18.3364Z" fill="#D4EBF8"/>
<path d="M74.6279 22.6986H56.4243V25.5846H74.6279V22.6986Z" fill="#D4EBF8"/>
<path d="M74.6279 27.1762H56.4243V30.0622H74.6279V27.1762Z" fill="#D4EBF8"/>
<g style="mix-blend-mode:multiply">
<path style="mix-blend-mode:multiply" d="M61.8203 64.4118L66.3712 67.7278L71.0309 59.1169L68.4962 57.737L65.4047 63.4512L63.5144 62.0734L61.8203 64.4118Z" fill="url(#paint5_linear)"/>
<path style="mix-blend-mode:multiply" d="M68.2743 72.8537C66.2484 73.2679 64.1454 73.0705 62.2314 72.2863C60.3173 71.5022 58.6782 70.1666 57.5211 68.4483C56.3641 66.7301 55.7411 64.7064 55.7311 62.6332C55.721 60.56 56.3243 58.5303 57.4646 56.8009C58.6049 55.0715 60.231 53.7199 62.1373 52.9171C64.0437 52.1143 66.1446 51.8964 68.1745 52.2908C70.2043 52.6853 72.072 53.6744 73.5412 55.1331C75.0105 56.5918 76.0154 58.4547 76.4288 60.486C76.9792 63.21 76.4298 66.0416 74.9012 68.3601C73.3725 70.6785 70.9894 72.2945 68.2743 72.8537ZM64.5534 54.5536C62.97 54.8777 61.518 55.6653 60.381 56.8168C59.244 57.9684 58.473 59.4321 58.1656 61.0229C57.8581 62.6137 58.028 64.2603 58.6537 65.7543C59.2794 67.2483 60.3329 68.5228 61.6809 69.4165C63.0289 70.3102 64.6109 70.7831 66.227 70.7754C67.843 70.7676 69.4205 70.2796 70.7599 69.373C72.0993 68.4663 73.1406 67.1818 73.752 65.6819C74.3634 64.1819 74.5176 62.5338 74.195 60.946C73.7596 58.8175 72.5 56.9491 70.6924 55.7507C68.8849 54.5523 66.6771 54.1218 64.5534 54.5536Z" fill="url(#paint6_linear)"/>
</g>
<g style="mix-blend-mode:multiply">
<g style="mix-blend-mode:multiply">
<path d="M36.0446 13.7304V16.8047C36.0441 17.1541 35.9409 17.4956 35.748 17.7866C35.5701 18.0723 35.3158 18.3021 35.014 18.45C34.7123 18.5978 34.3752 18.6578 34.0411 18.6231C33.6297 18.5917 33.2409 18.4222 32.9374 18.142C32.6339 17.8617 32.4334 17.487 32.3684 17.0785C32.352 16.9723 32.3442 16.865 32.3449 16.7576C32.3449 14.8001 32.3449 12.8404 32.3449 10.8829C32.3441 10.6277 32.4191 10.378 32.5605 10.1657C32.7019 9.95347 32.9032 9.7883 33.1386 9.69131C33.2078 9.66345 33.2792 9.64127 33.352 9.62499C33.5927 9.57221 33.8439 9.59537 34.071 9.69131C34.2989 9.78172 34.4951 9.93751 34.6352 10.1392C34.7752 10.3409 34.8528 10.5795 34.8583 10.8252C34.8583 12.265 34.8583 13.7047 34.8583 15.1445C34.8583 15.3863 34.7473 15.5189 34.5468 15.5168C34.3462 15.5146 34.2374 15.3734 34.2374 15.1445C34.2374 13.7311 34.2374 12.3163 34.2374 10.9C34.2398 10.828 34.2319 10.7559 34.2139 10.6861C34.1649 10.5472 34.0698 10.4295 33.9444 10.3526C33.819 10.2758 33.6711 10.2445 33.5255 10.2641C33.3799 10.2837 33.2454 10.3529 33.1447 10.4601C33.0439 10.5673 32.983 10.7061 32.9722 10.853V16.8239C32.983 17.1338 33.1097 17.4283 33.3272 17.6488C33.5446 17.8694 33.8369 17.9997 34.1458 18.014C34.4547 18.0283 34.7577 17.9255 34.9945 17.726C35.2313 17.5265 35.3845 17.2449 35.4237 16.9373C35.429 16.884 35.429 16.8302 35.4237 16.7769C35.4237 14.743 35.4237 12.7099 35.4237 10.6775C35.4206 10.3236 35.3089 9.97927 35.1036 9.69131C35.0314 9.58477 34.9469 9.48712 34.8519 9.40035C34.5157 9.07424 34.0662 8.89193 33.5984 8.89193C33.1306 8.89193 32.6812 9.07424 32.3449 9.40035H31.5342C31.7557 9.05319 32.0608 8.76751 32.4213 8.56963C32.7819 8.37175 33.1863 8.26804 33.5973 8.26804C34.0084 8.26804 34.4128 8.37175 34.7733 8.56963C35.1339 8.76751 35.439 9.05319 35.6605 9.40035C35.7205 9.49351 35.774 9.59073 35.8205 9.69131C35.8945 9.85458 35.951 10.0253 35.9891 10.2005C36.0272 10.387 36.0451 10.577 36.0424 10.7674C36.0574 11.7536 36.0446 12.742 36.0446 13.7304Z" fill="#E6E7E8"/>
</g>
</g>
<path d="M36.3371 13.4394V16.5137C36.3367 16.8631 36.2335 17.2047 36.0406 17.4957C35.8627 17.7813 35.6084 18.0111 35.3066 18.159C35.0049 18.3069 34.6678 18.3669 34.3337 18.3321C33.9223 18.3008 33.5335 18.1312 33.23 17.851C32.9265 17.5707 32.726 17.1961 32.661 16.7875C32.6471 16.6833 32.6414 16.5782 32.6439 16.473C32.6439 14.5155 32.6439 12.5559 32.6439 10.5984C32.6431 10.3431 32.7181 10.0934 32.8595 9.88117C33.0009 9.66891 33.2022 9.50374 33.4376 9.40675C33.5068 9.37889 33.5782 9.35671 33.651 9.34043C33.8917 9.28765 34.1429 9.31082 34.37 9.40675C34.5979 9.49716 34.7941 9.65295 34.9342 9.85463C35.0742 10.0563 35.1518 10.2949 35.1573 10.5406C35.1573 11.9804 35.1573 13.4202 35.1573 14.86C35.1573 15.1017 35.0463 15.2344 34.8458 15.2322C34.6452 15.2301 34.5364 15.0889 34.5364 14.86C34.5364 13.4451 34.5364 12.0303 34.5364 10.6155C34.5388 10.5434 34.5309 10.4714 34.5129 10.4015C34.4639 10.2627 34.3688 10.1449 34.2434 10.0681C34.118 9.99123 33.9701 9.95997 33.8245 9.97954C33.6789 9.99911 33.5444 10.0683 33.4437 10.1755C33.3429 10.2828 33.282 10.4215 33.2712 10.5684V16.5329C33.282 16.8429 33.4087 17.1374 33.6261 17.3579C33.8436 17.5784 34.1359 17.7087 34.4448 17.723C34.7537 17.7373 35.0567 17.6345 35.2935 17.435C35.5303 17.2355 35.6835 16.9539 35.7227 16.6463C35.728 16.593 35.728 16.5392 35.7227 16.4859C35.7227 14.4506 35.7227 12.4175 35.7227 10.3866C35.7196 10.0327 35.6078 9.68829 35.4026 9.40033C35.236 9.15413 35.0118 8.95257 34.7496 8.81325C34.4874 8.67393 34.1952 8.60109 33.8985 8.60109C33.6017 8.60109 33.3095 8.67393 33.0473 8.81325C32.7851 8.95257 32.5609 9.15413 32.3943 9.40033H31.6753C31.8722 8.97548 32.186 8.61589 32.5799 8.36391C32.9738 8.11193 33.4313 7.97806 33.8985 7.97806C34.3657 7.97806 34.8232 8.11193 35.217 8.36391C35.6109 8.61589 35.9248 8.97548 36.1216 9.40033C36.1956 9.56361 36.2521 9.73428 36.2902 9.9095C36.3259 10.0984 36.3409 10.2907 36.335 10.4828C36.3393 11.4627 36.3371 12.4511 36.3371 13.4394Z" fill="url(#paint7_linear)"/>
<defs>
<linearGradient id="paint0_linear" x1="20.6082" y1="0.3017" x2="48.3721" y2="107.329" gradientUnits="userSpaceOnUse">
<stop stop-color="#f1b602"/>
<stop offset="0.49" stop-color="#f1b602"/>
<stop offset="0.83" stop-color="#f1b602"/>
<stop offset="1" stop-color="#f1b602"/>
</linearGradient>
<linearGradient id="paint1_linear" x1="47" y1="-13.5" x2="91.1059" y2="69.2108" gradientUnits="userSpaceOnUse">
<stop stop-color="#f1b602"/>
<stop offset="1" stop-color="#f1b602"/>
</linearGradient>
<linearGradient id="paint2_linear" x1="177.5" y1="94.5" x2="-26" y2="28.5" gradientUnits="userSpaceOnUse">
<stop stop-color="#B28FFF"/>
<stop offset="1" stop-color="#f1b602"/>
</linearGradient>
<linearGradient id="paint3_linear" x1="44.293" y1="27.3303" x2="44.293" y2="36.4824" gradientUnits="userSpaceOnUse">
<stop stop-color="#FF697D"/>
<stop offset="1" stop-color="#DE2276"/>
</linearGradient>
<linearGradient id="paint4_linear" x1="44.293" y1="14.6674" x2="44.293" y2="35.4641" gradientUnits="userSpaceOnUse">
<stop stop-color="#3478FF"/>
<stop offset="1" stop-color="#482EBD"/>
</linearGradient>
<linearGradient id="paint5_linear" x1="65.1919" y1="54.6522" x2="68.3233" y2="72.6258" gradientUnits="userSpaceOnUse">
<stop stop-color="#EFFF55"/>
<stop offset="1" stop-color="#3FFFBC"/>
</linearGradient>
<linearGradient id="paint6_linear" x1="4909.77" y1="4644.22" x2="4849.64" y2="6698.43" gradientUnits="userSpaceOnUse">
<stop stop-color="#EFFF55"/>
<stop offset="1" stop-color="#3FFFBC"/>
</linearGradient>
<linearGradient id="paint7_linear" x1="31.6668" y1="13.157" x2="36.3371" y2="13.157" gradientUnits="userSpaceOnUse">
<stop stop-color="#FBD15B"/>
<stop offset="1" stop-color="#FE9373"/>
</linearGradient>
</defs>
</svg>
