<svg width="217" height="213" viewBox="0 0 217 213" fill="none" xmlns="http://www.w3.org/2000/svg">
<g clip-path="url(#clip0)">
<path d="M28.2468 183.379L-8.74715 204.74C-9.94861 205.433 -11.8989 205.433 -13.1004 204.74C-14.3018 204.047 -14.3018 202.923 -13.1004 202.225L23.8936 180.864C25.0951 180.171 27.0454 180.171 28.2468 180.864C29.4483 181.557 29.4483 182.68 28.2468 183.379Z" fill="#F8F8F8"/>
<path d="M56.8251 166.875L37.2719 178.164C36.0704 178.857 34.1201 178.857 32.9187 178.164C31.7172 177.471 31.7172 176.348 32.9187 175.649L52.4718 164.359C53.6733 163.666 55.6236 163.666 56.8251 164.359C58.0265 165.053 58.0265 166.181 56.8251 166.875Z" fill="#F8F8F8"/>
<path d="M39.2166 165.835L2.22258 187.196C1.02111 187.889 -0.929173 187.889 -2.13064 187.196C-3.3321 186.503 -3.3321 185.379 -2.13064 184.681L34.8633 163.32C36.0648 162.627 38.0151 162.627 39.2166 163.32C40.418 164.013 40.418 165.142 39.2166 165.835Z" fill="#F8F8F8"/>
<path d="M86.5208 138.522L49.5268 159.883C48.3253 160.576 46.375 160.576 45.1736 159.883C43.9721 159.19 43.9721 158.066 45.1736 157.368L82.1675 136.007C83.369 135.314 85.3193 135.314 86.5208 136.007C87.7222 136.7 87.7222 137.823 86.5208 138.522Z" fill="#F8F8F8"/>
<path d="M107.767 148.666L70.7734 170.027C69.5719 170.72 67.6216 170.72 66.4201 170.027C65.2187 169.334 65.2187 168.21 66.4201 167.512L103.414 146.151C104.616 145.458 106.566 145.458 107.767 146.151C108.969 146.849 108.969 147.973 107.767 148.666Z" fill="#F8F8F8"/>
<path d="M37.9534 188.979L27.1235 195.233C25.922 195.926 23.9717 195.926 22.7702 195.233C21.5688 194.54 21.5688 193.416 22.7702 192.718L33.6002 186.464C34.8017 185.771 36.752 185.771 37.9534 186.464C39.1549 187.162 39.1549 188.286 37.9534 188.979Z" fill="#F8F8F8"/>
<path d="M130.796 135.37L119.966 141.624C118.765 142.317 116.814 142.317 115.613 141.624C114.412 140.931 114.412 139.807 115.613 139.109L126.443 132.855C127.644 132.162 129.595 132.162 130.796 132.855C131.998 133.553 131.998 134.677 130.796 135.37Z" fill="#F8F8F8"/>
<path d="M46.5764 150.376L9.58245 171.737C8.38098 172.43 6.43069 172.43 5.22922 171.737C4.02776 171.044 4.02776 169.92 5.22922 169.222L42.2232 147.861C43.4247 147.168 45.375 147.168 46.5764 147.861C47.7779 148.56 47.7779 149.683 46.5764 150.376Z" fill="#F8F8F8"/>
<path d="M69.5999 137.08L58.7699 143.334C57.5685 144.027 55.6182 144.027 54.4167 143.334C53.2153 142.641 53.2153 141.517 54.4167 140.819L65.2467 134.565C66.4482 133.872 68.3984 133.872 69.5999 134.565C70.8014 135.258 70.8014 136.387 69.5999 137.08Z" fill="#F8F8F8"/>
<path d="M112.372 178.416L75.3779 199.777C74.1764 200.47 72.2261 200.47 71.0246 199.777C69.8232 199.084 69.8232 197.96 71.0246 197.262L108.019 175.901C109.22 175.208 111.17 175.208 112.372 175.901C113.573 176.599 113.573 177.723 112.372 178.416Z" fill="#F8F8F8"/>
<path d="M140.95 161.917L121.397 173.207C120.195 173.9 118.245 173.9 117.043 173.207C115.842 172.514 115.842 171.39 117.043 170.692L136.597 159.402C137.798 158.709 139.748 158.709 140.95 159.402C142.151 160.095 142.151 161.224 140.95 161.917Z" fill="#F8F8F8"/>
<path d="M123.336 160.878L86.3417 182.239C85.1403 182.932 83.19 182.932 81.9885 182.239C80.787 181.545 80.787 180.422 81.9885 179.723L118.982 158.363C120.184 157.67 122.134 157.67 123.336 158.363C124.537 159.056 124.537 160.185 123.336 160.878Z" fill="#F8F8F8"/>
<path d="M170.64 133.564L133.646 154.925C132.445 155.618 130.494 155.618 129.293 154.925C128.091 154.232 128.091 153.109 129.293 152.41L166.287 131.049C167.488 130.356 169.439 130.356 170.64 131.049C171.842 131.742 171.842 132.866 170.64 133.564Z" fill="#F8F8F8"/>
<path d="M191.886 143.708L154.893 165.069C153.691 165.762 151.741 165.762 150.539 165.069C149.338 164.376 149.338 163.253 150.539 162.554L187.533 141.193C188.735 140.5 190.685 140.5 191.886 141.193C193.088 141.892 193.088 143.015 191.886 143.708Z" fill="#F8F8F8"/>
<path d="M122.079 184.021L111.249 190.275C110.047 190.968 108.097 190.968 106.895 190.275C105.694 189.582 105.694 188.459 106.895 187.76L117.725 181.506C118.927 180.813 120.877 180.813 122.079 181.506C123.28 182.205 123.28 183.328 122.079 184.021Z" fill="#F8F8F8"/>
<path d="M214.916 130.412L204.086 136.666C202.884 137.359 200.934 137.359 199.732 136.666C198.531 135.973 198.531 134.85 199.732 134.151L210.562 127.897C211.764 127.204 213.714 127.204 214.916 127.897C216.117 128.596 216.117 129.719 214.916 130.412Z" fill="#F8F8F8"/>
<path d="M130.696 145.419L93.7016 166.779C92.5001 167.473 90.5498 167.473 89.3484 166.779C88.1469 166.086 88.1469 164.963 89.3484 164.264L126.342 142.904C127.544 142.211 129.494 142.211 130.696 142.904C131.897 143.602 131.897 144.726 130.696 145.419Z" fill="#F8F8F8"/>
<path d="M153.725 132.122L142.895 138.376C141.693 139.069 139.743 139.069 138.541 138.376C137.34 137.683 137.34 136.56 138.541 135.861L149.371 129.607C150.573 128.914 152.523 128.914 153.725 129.607C154.926 130.3 154.926 131.429 153.725 132.122Z" fill="#F8F8F8"/>
<path d="M25.5313 139.494C26.1628 140.316 27.0122 140.942 27.9007 141.456L134.976 203.281C136.217 204.002 137.558 204.51 139.006 204.823C140.386 205.114 141.861 205.282 143.336 205.287C146.287 205.298 149.282 204.684 151.708 203.286L202.661 173.872C204.097 173.045 205.662 171.608 206.036 169.993C206.098 169.725 206.126 169.445 206.126 169.172C206.126 172.469 206.126 173.458 206.126 176.767C206.131 178.852 204.511 180.528 202.661 181.596L151.708 211.016C150.467 211.731 149.126 212.245 147.679 212.553C143.543 213.436 138.62 213.123 134.976 211.016L27.9007 149.174C27.4369 148.906 26.9899 148.604 26.5596 148.263C25.3972 147.341 24.4416 145.799 24.4416 144.312H24.436C24.436 140.981 24.436 139.958 24.436 136.622H24.4416C24.4696 137.644 24.8999 138.673 25.5313 139.494Z" fill="#596876"/>
<path d="M181.493 188.453C181.822 188.269 182.113 188.241 182.337 188.347C182.588 188.465 182.75 188.755 182.75 189.18V189.722C182.75 190.527 182.18 191.505 181.493 191.902L172.876 196.876C172.524 197.077 172.216 197.094 171.993 196.965C171.764 196.837 171.618 196.552 171.618 196.155V195.607C171.618 194.808 172.188 193.83 172.876 193.433L181.493 188.453Z" fill="#1C1A2A"/>
<path d="M162.359 199.363C163.56 198.145 164.711 198.631 164.678 199.888C164.627 201.777 162.755 203.622 161.738 202.99C161.604 202.906 161.492 202.783 161.386 202.61C161.219 202.32 161.213 201.956 161.252 201.61C161.302 201.191 161.425 200.794 161.61 200.419C161.61 200.419 161.61 200.414 161.615 200.414C161.71 200.268 161.8 200.118 161.878 199.95C162.023 199.737 162.18 199.542 162.359 199.363Z" fill="#1C1A2A"/>
<path d="M27.6107 139.019C28.4881 140.081 29.1978 140.361 32.2769 142.16C32.3328 142.194 136.626 202.431 137.168 202.7C138.939 203.56 141.146 203.996 143.348 203.996L143.337 205.282C141.862 205.276 140.386 205.114 139.006 204.818C137.564 204.505 136.218 204.002 134.977 203.275L27.9013 141.456C27.0184 140.942 26.1634 140.316 25.5319 139.494C24.9004 138.673 24.4702 137.644 24.4422 136.622C24.4255 136.297 24.4534 135.984 24.526 135.671C24.906 134.051 26.4596 132.62 27.9013 131.793L78.8547 102.378C81.2799 100.981 84.2696 100.372 87.2202 100.377L87.209 101.663C86.1193 101.663 85.0017 101.769 83.9176 102.004C81.7102 102.473 80.6485 103.144 79.0055 104.122C77.3402 105.122 82.7888 101.903 59.8771 115.132C56.1497 117.289 52.4392 119.48 48.7118 121.632C44.9845 123.778 41.2404 125.891 37.5186 128.071C35.9651 128.976 34.4228 129.898 32.8637 130.776C31.0419 131.804 29.3431 132.698 28.4769 133.391C26.5322 134.951 26.0237 137.108 27.6107 139.019Z" fill="#717F90"/>
<path d="M53.3049 160.212L54.1599 159.715L44.7661 154.294L43.9111 154.786L53.3049 160.212Z" fill="#403D54"/>
<path d="M54.1597 160.906V159.715L53.3047 160.213V161.397L54.1597 160.906Z" fill="#2F2D3D"/>
<path d="M53.3049 161.397V160.213L43.9111 154.786V155.97L53.3049 161.397Z" fill="#585858"/>
<path d="M156.866 204.365C157.05 204.259 157.195 204.007 157.195 203.806C157.195 203.605 157.044 203.527 156.866 203.627C156.681 203.734 156.536 203.985 156.536 204.186C156.536 204.393 156.687 204.471 156.866 204.365Z" fill="#1C1A2A"/>
<path d="M199.928 181.283C200.208 181.121 200.442 180.729 200.442 180.416V177.974C200.442 177.661 200.213 177.538 199.928 177.7C199.649 177.862 199.414 178.254 199.414 178.567V181.009C199.414 181.322 199.643 181.445 199.928 181.283Z" fill="#1C1A2A"/>
<path d="M197.877 182.468C198.157 182.306 198.392 181.914 198.392 181.601V179.159C198.392 178.846 198.162 178.723 197.877 178.885C197.598 179.047 197.363 179.438 197.363 179.751V182.194C197.363 182.507 197.592 182.63 197.877 182.468Z" fill="#1C1A2A"/>
<path d="M195.826 183.653C196.106 183.49 196.34 183.099 196.34 182.786V180.344C196.34 180.031 196.111 179.908 195.826 180.07C195.547 180.232 195.312 180.623 195.312 180.936V183.379C195.312 183.692 195.547 183.815 195.826 183.653Z" fill="#1C1A2A"/>
<path d="M193.776 184.832C194.055 184.67 194.29 184.278 194.29 183.965V181.523C194.29 181.21 194.061 181.087 193.776 181.249C193.496 181.411 193.261 181.803 193.261 182.116V184.558C193.267 184.871 193.496 184.994 193.776 184.832Z" fill="#1C1A2A"/>
<path d="M191.73 186.017C192.01 185.855 192.245 185.463 192.245 185.15V182.708C192.245 182.395 192.015 182.272 191.73 182.434C191.451 182.596 191.216 182.987 191.216 183.3V185.743C191.216 186.056 191.445 186.179 191.73 186.017Z" fill="#1C1A2A"/>
<path d="M189.679 187.201C189.959 187.039 190.193 186.648 190.193 186.335V183.893C190.193 183.58 189.964 183.457 189.679 183.619C189.4 183.781 189.165 184.172 189.165 184.485V186.928C189.165 187.241 189.394 187.364 189.679 187.201Z" fill="#1C1A2A"/>
<path d="M202.661 173.866L151.708 203.281C149.282 204.678 146.287 205.293 143.337 205.282L143.348 203.996C145.309 203.996 147.287 203.644 148.958 202.945C149.947 202.532 150.679 202.062 151.557 201.537C153.222 200.537 147.774 203.756 170.685 190.527C174.413 188.37 178.123 186.179 181.85 184.027C185.583 181.875 189.328 179.768 193.044 177.588C194.597 176.677 196.14 175.761 197.704 174.883C200.789 173.145 202.247 172.469 203.197 171.1C204.444 169.306 204.159 166.936 201.08 165.114C200.962 165.041 93.8752 103.194 93.3946 102.959C91.6958 102.138 89.5053 101.663 87.2085 101.663L87.2197 100.377C88.695 100.383 90.1702 100.545 91.5561 100.841C92.9979 101.149 94.3446 101.657 95.5908 102.384L202.661 164.209C203.55 164.723 204.399 165.349 205.036 166.17C205.695 167.025 206.126 168.104 206.126 169.166C206.126 169.44 206.098 169.719 206.036 169.988C205.662 171.603 204.097 173.033 202.661 173.866Z" fill="#717F90"/>
<path d="M95.3671 104.094C94.1209 103.373 93.4279 102.976 93.3944 102.959C91.6956 102.132 89.505 101.663 87.2083 101.663C86.1241 101.663 85.0009 101.775 83.9168 102.004C81.7095 102.473 80.6421 103.144 79.0048 104.122C77.4624 105.05 82.0671 102.334 64.2575 112.6L59.8763 115.132C56.149 117.29 52.4384 119.48 48.7111 121.632C47.6884 122.225 46.6658 122.806 45.6431 123.387C42.9328 124.941 40.217 126.483 37.5123 128.065C35.9643 128.976 34.4164 129.893 32.8629 130.77C31.0467 131.798 29.3423 132.693 28.4761 133.391C26.537 134.951 26.0229 137.108 27.6155 139.019C28.4985 140.081 29.2026 140.361 32.2817 142.16L77.5686 168.311C105.811 184.619 136.876 202.549 137.172 202.694C138.938 203.56 141.151 203.991 143.353 203.991C145.315 203.991 147.287 203.639 148.964 202.94C149.953 202.526 150.69 202.057 151.562 201.532C153.227 200.531 147.779 203.75 170.691 190.521C174.418 188.364 178.129 186.173 181.856 184.021C185.589 181.87 189.333 179.763 193.055 177.589C194.597 176.683 196.15 175.761 197.704 174.884C200.794 173.145 202.247 172.469 203.197 171.1C204.399 169.373 204.175 167.12 201.42 165.332C201.308 165.259 201.191 165.187 201.074 165.114C200.968 165.053 110.019 112.517 95.3671 104.094Z" fill="#717F90"/>
<path d="M201.42 165.333C204.175 167.121 204.399 169.374 203.197 171.101C202.247 172.476 200.794 173.152 197.704 174.884C196.145 175.762 194.597 176.684 193.055 177.589C189.333 179.764 185.589 181.876 181.856 184.022C178.129 186.174 174.418 188.365 170.691 190.522C147.779 203.746 153.227 200.532 151.562 201.532C150.69 202.058 149.953 202.533 148.964 202.941C145.382 204.439 140.481 204.31 137.178 202.695C136.681 202.455 45.9952 150.075 32.2817 142.156C29.2026 140.356 28.4985 140.071 27.6155 139.015C26.0229 137.103 26.537 134.94 28.4761 133.387C29.5323 132.543 30.4488 132.213 37.5179 128.06C39.6246 126.825 41.7425 125.618 43.8549 124.411C44.844 123.846 46.4478 123.846 47.4314 124.416C49.756 125.758 53.5281 125.758 55.8584 124.416L66.0848 118.514C68.4095 117.173 68.4095 114.993 66.0848 113.652C65.0342 113.048 65.1013 112.121 66.068 111.567C81.7598 102.524 77.5239 105.023 79.0159 104.128C80.6533 103.145 81.7206 102.474 83.928 102.01C87.3033 101.289 90.9244 101.759 93.4056 102.966C93.4559 102.988 90.55 101.317 201.42 165.333Z" fill="url(#paint0_linear)"/>
<path d="M62.056 116.624C62.5198 116.35 63.263 116.35 63.7269 116.624L64.3472 116.982L53.0031 123.532C52.5393 123.801 51.7904 123.795 51.3266 123.532L50.7119 123.175L62.056 116.624Z" fill="#090000"/>
<path d="M63.7214 115.467L64.5038 115.92C64.9732 116.188 64.962 116.619 64.5038 116.887L64.3417 116.982L63.7214 116.624C63.2576 116.35 62.5144 116.35 62.0506 116.624L50.7065 123.175L50.5444 123.08C50.3209 122.951 50.198 122.778 50.1924 122.604C50.1924 122.599 50.1924 122.599 50.1924 122.593C50.1924 122.42 50.3097 122.241 50.5444 122.113L62.0506 115.467C62.5144 115.199 63.2688 115.205 63.7214 115.467Z" fill="#1A2738"/>
<path d="M42.7319 128.261C43.6764 128.803 45.2019 128.803 46.1463 128.261C47.0908 127.718 47.0908 126.835 46.1463 126.288C45.2019 125.746 43.6764 125.746 42.7319 126.288C41.7931 126.835 41.7931 127.718 42.7319 128.261Z" fill="#717F90"/>
<path d="M75.4007 109.398C76.3451 109.94 77.8707 109.94 78.8151 109.398C79.7595 108.856 79.7595 107.973 78.8151 107.425C77.8707 106.883 76.3451 106.883 75.4007 107.425C74.4563 107.973 74.4563 108.856 75.4007 109.398Z" fill="#717F90"/>
<path d="M38.4624 131.424C39.1291 131.424 39.6695 131.111 39.6695 130.725C39.6695 130.339 39.1291 130.027 38.4624 130.027C37.7958 130.027 37.2554 130.339 37.2554 130.725C37.2554 131.111 37.7958 131.424 38.4624 131.424Z" fill="#717F90"/>
<path d="M68.1414 113.344C68.6108 113.618 69.3764 113.618 69.8514 113.344C70.3208 113.07 70.3208 112.628 69.8514 112.36C69.382 112.086 68.6164 112.086 68.1414 112.36C67.6664 112.628 67.6664 113.07 68.1414 113.344Z" fill="#717F90"/>
<path d="M71.7681 111.946C72.4347 111.946 72.9751 111.634 72.9751 111.248C72.9751 110.862 72.4347 110.549 71.7681 110.549C71.1014 110.549 70.561 110.862 70.561 111.248C70.561 111.634 71.1014 111.946 71.7681 111.946Z" fill="#717F90"/>
<g opacity="0.27">
<path opacity="0.27" d="M73.6568 128.97L50.4322 142.378C49.6778 142.814 48.454 142.814 47.6996 142.378C46.9452 141.942 46.9452 141.238 47.6996 140.802L70.9242 127.394C71.6786 126.958 72.9024 126.958 73.6568 127.394C74.4112 127.83 74.4112 128.534 73.6568 128.97Z" fill="#717F90"/>
<path opacity="0.27" d="M72.0975 136.174L55.8917 145.53C55.1373 145.966 53.9135 145.966 53.1591 145.53C52.4047 145.094 52.4047 144.39 53.1591 143.954L69.3649 134.598C70.1193 134.162 71.3431 134.162 72.0975 134.598C72.8519 135.034 72.8519 135.738 72.0975 136.174Z" fill="#717F90"/>
<path opacity="0.27" d="M77.5575 139.327L61.3517 148.682C60.5973 149.118 59.3734 149.118 58.619 148.682C57.8646 148.247 57.8646 147.542 58.619 147.106L74.8249 137.751C75.5793 137.315 76.8031 137.315 77.5575 137.751C78.3119 138.186 78.3119 138.891 77.5575 139.327Z" fill="#717F90"/>
</g>
<g opacity="0.27">
<path opacity="0.27" d="M115.557 122.224L92.3326 135.632C91.5782 136.068 90.3544 136.068 89.6 135.632C88.8456 135.196 88.8456 134.492 89.6 134.056L112.825 120.648C113.579 120.212 114.803 120.212 115.557 120.648C116.312 121.079 116.312 121.789 115.557 122.224Z" fill="#717F90"/>
<path opacity="0.27" d="M114.004 129.429L97.798 138.784C97.0435 139.22 95.8197 139.22 95.0653 138.784C94.3109 138.348 94.3109 137.644 95.0653 137.208L111.271 127.852C112.026 127.417 113.249 127.417 114.004 127.852C114.758 128.283 114.758 128.993 114.004 129.429Z" fill="#717F90"/>
<path opacity="0.27" d="M119.463 132.581L103.258 141.937C102.503 142.373 101.279 142.373 100.525 141.937C99.7706 141.501 99.7706 140.796 100.525 140.361L116.731 131.005C117.485 130.569 118.709 130.569 119.463 131.005C120.218 131.441 120.218 132.145 119.463 132.581Z" fill="#717F90"/>
</g>
<g opacity="0.27">
<path opacity="0.27" d="M123.118 159.782L99.8934 173.19C99.139 173.626 97.9152 173.626 97.1608 173.19C96.4064 172.754 96.4064 172.05 97.1608 171.614L120.385 158.206C121.14 157.77 122.364 157.77 123.118 158.206C123.872 158.642 123.872 159.346 123.118 159.782Z" fill="#717F90"/>
<path opacity="0.27" d="M121.565 166.986L105.359 176.342C104.604 176.778 103.381 176.778 102.626 176.342C101.872 175.906 101.872 175.202 102.626 174.766L118.832 165.41C119.586 164.974 120.81 164.974 121.565 165.41C122.319 165.846 122.319 166.55 121.565 166.986Z" fill="#717F90"/>
<path opacity="0.27" d="M127.024 170.139L110.818 179.494C110.064 179.93 108.84 179.93 108.086 179.494C107.331 179.058 107.331 178.354 108.086 177.918L124.292 168.562C125.046 168.126 126.27 168.126 127.024 168.562C127.779 168.998 127.779 169.703 127.024 170.139Z" fill="#717F90"/>
</g>
<path d="M198.179 102.479C195.329 104.122 192.479 105.771 189.629 107.414C191.065 106.52 191.948 104.686 191.948 102.104C191.948 97.3035 191.948 92.497 191.948 87.6961C191.948 82.4034 188.232 75.9649 183.65 73.3157C176.609 69.247 169.562 65.1783 162.515 61.1095C160.269 59.8129 158.234 59.6676 156.737 60.478C159.592 58.8236 162.448 57.1749 165.304 55.5262C166.807 54.6599 168.88 54.7884 171.171 56.1074C178.212 60.1762 185.259 64.2449 192.306 68.3137C196.888 70.9572 200.604 77.3957 200.604 82.694C200.604 87.4949 200.604 92.2958 200.604 97.1023C200.615 99.7514 199.682 101.613 198.179 102.479Z" fill="#8565FF"/>
<path d="M191.954 87.7017C191.954 92.5026 191.954 97.3091 191.954 102.11C191.954 104.692 191.071 106.525 189.635 107.419C189.596 107.442 189.562 107.459 189.523 107.487C188.02 108.358 185.946 108.23 183.655 106.905C176.614 102.842 169.567 98.7678 162.521 94.7046L154.222 97.0743C154.222 93.313 154.222 69.7165 154.222 65.9216C154.222 63.278 155.15 61.4169 156.653 60.545C156.687 60.5283 156.715 60.5059 156.748 60.4947C158.24 59.6787 160.274 59.8297 162.526 61.1263C169.567 65.195 176.614 69.2638 183.661 73.3325C188.232 75.9649 191.954 82.4034 191.954 87.7017Z" fill="#B28FFF"/>
<path d="M168.645 80.7547C168.645 81.8836 167.729 82.2748 166.6 81.6209C165.471 80.967 164.555 79.5195 164.555 78.3905C164.555 77.2616 165.471 76.8703 166.6 77.5243C167.729 78.1782 168.645 79.6201 168.645 80.7547Z" fill="#FCFFFF"/>
<path d="M175.133 84.4993C175.133 85.6283 174.217 86.0195 173.088 85.3656C171.959 84.7117 171.042 83.2641 171.042 82.1352C171.042 81.0062 171.959 80.615 173.088 81.2689C174.217 81.9228 175.133 83.3703 175.133 84.4993Z" fill="#FCFFFF"/>
<path d="M181.627 88.2494C181.627 89.3784 180.71 89.7696 179.581 89.1157C178.453 88.4618 177.536 87.0142 177.536 85.8853C177.536 84.7563 178.453 84.3651 179.581 85.019C180.71 85.6729 181.627 87.1148 181.627 88.2494Z" fill="#FCFFFF"/>
<path d="M164.337 35.6631C164.337 36.4008 164.337 37.133 164.337 37.8651C164.337 37.2559 163.733 36.7641 162.984 36.7641C163.728 36.7641 164.337 36.2723 164.337 35.6631Z" fill="#B28FFF"/>
<path d="M164.337 33.774C164.337 34.4056 164.337 35.0371 164.337 35.6631C164.337 35.0539 163.733 34.562 162.984 34.562C162.303 34.562 160.598 34.562 159.888 34.562V34.5509C159.922 34.4503 160.559 32.5221 160.559 30.7448C160.559 30.6554 160.559 30.5604 160.559 30.4709C161 30.4709 162.358 30.4709 162.979 30.4709C163.728 30.4709 164.331 30.9628 164.331 31.572C164.337 32.3041 164.337 33.0363 164.337 33.774Z" fill="#B28FFF"/>
<path d="M164.074 38.519C164.074 38.9941 164.074 39.4692 164.074 39.9498C164.074 39.5195 163.778 39.1506 163.342 38.9662H163.012C163.448 38.9662 163.834 38.7873 164.074 38.519Z" fill="#B28FFF"/>
<path d="M162.722 41.0564C162.906 41.0564 163.085 41.0284 163.241 40.9725C163.241 41.3079 163.241 41.6376 163.241 41.9785C163.241 41.6097 163.024 41.2911 162.688 41.0899V41.0564C162.705 41.0564 162.716 41.0564 162.722 41.0564Z" fill="#B28FFF"/>
<path d="M160.559 30.7448C160.559 32.522 159.922 34.4502 159.889 34.5508V34.562C160.598 34.562 162.303 34.562 162.984 34.562C163.733 34.562 164.337 35.0538 164.337 35.663C164.337 36.2722 163.733 36.7641 162.984 36.7641C163.733 36.7641 164.337 37.2559 164.337 37.8651C164.337 38.111 164.242 38.3345 164.074 38.519C163.834 38.7872 163.448 38.9661 163.007 38.9661H163.336C163.772 39.1505 164.069 39.5194 164.069 39.9497C164.069 40.408 163.728 40.7993 163.241 40.9669C163.079 41.0228 162.906 41.0508 162.722 41.0508C162.711 41.0508 162.705 41.0508 162.694 41.0508C162.381 41.0508 162.062 41.0508 161.749 41.0508L162.694 41.0843C163.029 41.2855 163.247 41.6041 163.247 41.9729C163.247 42.5821 162.644 43.074 161.9 43.074C161.816 43.074 161.727 43.074 161.643 43.074C160.95 43.074 160.257 43.074 159.564 43.074C158.48 43.074 157.396 43.074 156.312 43.074C154.256 43.074 152.585 41.7103 152.585 40.0336C152.585 39.2679 152.585 37.8371 152.585 36.8367C152.585 35.7189 153.417 34.7129 154.691 34.3049C155.904 33.9137 157.335 32.9692 158.072 30.7504C158.687 28.9004 160.364 28.9619 160.542 30.4765C160.559 30.5547 160.559 30.6498 160.559 30.7448Z" fill="#8565FF"/>
<path d="M154.691 34.2994C153.417 34.713 152.585 35.7134 152.585 36.8312C152.585 36.5294 152.585 36.2331 152.585 35.9369C152.585 35.9313 152.585 35.9202 152.585 35.909C152.585 34.8527 152.585 33.7964 152.585 32.7401C152.585 31.6223 153.417 30.6163 154.691 30.2083C155.904 29.817 157.335 28.8725 158.072 26.6537C158.721 24.692 160.559 24.8764 160.559 26.6537C160.559 27.9224 160.559 29.1967 160.559 30.471C160.553 30.471 160.548 30.471 160.542 30.471C160.358 28.9564 158.681 28.8949 158.072 30.7448C157.335 32.9636 155.91 33.9081 154.691 34.2994Z" fill="#B28FFF"/>
<path d="M93.0032 5.60012C91.8967 5.42686 90.7847 5.25919 89.6782 5.08593C90.0023 2.29146 90.7847 0.134135 91.3267 0L91.405 0.00558894C92.707 0.206791 94.0147 0.407992 95.3167 0.609194C95.1323 0.609194 94.9032 0.860696 94.6629 1.38047C94.0258 2.75535 93.5005 5.51069 93.5005 7.5283C93.5061 6.27638 93.305 5.60012 93.0032 5.60012Z" fill="#B28FFF"/>
<path d="M93.5064 7.53385C93.5064 5.51624 94.0261 2.76649 94.6687 1.38602C94.909 0.860659 95.1326 0.614746 95.3226 0.614746C95.6243 0.614746 95.8255 1.29101 95.8255 2.54293C95.8255 4.25873 95.6355 4.98529 93.5064 17.7896C92.8749 16.4482 92.1987 15.2913 91.489 14.3188C91.3046 14.0673 91.1929 13.4581 91.1929 12.5248C91.1929 10.5072 91.7126 7.75741 92.3496 6.37694C92.5899 5.85158 92.8134 5.60567 93.0034 5.60567C93.3052 5.60008 93.5064 6.27634 93.5064 7.53385Z" fill="#8565FF"/>
<path d="M89.0917 4.99649C89.2873 5.02443 89.4828 5.05797 89.6784 5.08591C90.7849 5.25917 91.8914 5.42684 93.0034 5.60009C92.819 5.60009 92.5899 5.85159 92.3496 6.37137C91.7125 7.74624 91.1928 10.5016 91.1928 12.5192C91.1928 13.4525 91.3046 14.0617 91.489 14.3132C92.1987 15.2913 92.8749 16.4482 93.5064 17.784L89.5667 17.1748C88.9296 15.8334 88.259 14.6765 87.5437 13.7041C87.3649 13.4525 87.2476 12.8434 87.2476 11.91C87.2476 9.8924 87.7673 7.14264 88.4043 5.76217C88.6614 5.21446 88.8961 4.96295 89.0917 4.99649Z" fill="#B28FFF"/>
<path d="M116.183 136.7C116.183 137.052 116.183 137.41 116.183 137.767L115.099 138.393L93.7688 150.711C93.7688 150.354 93.7688 150.002 93.7688 149.644C93.7688 145.536 96.6579 140.534 100.212 138.483C103.386 136.65 106.56 134.816 109.74 132.978C111.483 131.972 113.065 131.86 114.227 132.491C115.434 133.145 116.183 134.604 116.183 136.7Z" fill="#F6D22E"/>
<path d="M116.183 139.019L93.7687 151.963L88.5381 148.945L89.6222 148.319L93.7687 150.711L115.099 138.393L116.183 139.019Z" fill="#B28FFF"/>
<path d="M116.178 150.594L93.7745 163.527L88.5439 160.509L89.6336 159.883L93.7745 162.269L115.088 149.962L116.178 150.594Z" fill="#FFFF66"/>
<path d="M116.177 150.594C116.01 154.624 113.193 159.385 109.745 161.375C106.571 163.208 103.392 165.041 100.217 166.88C98.4348 167.909 96.8254 168.004 95.6574 167.327C95.6518 167.322 95.6463 167.322 95.6407 167.316C94.5565 166.679 93.858 165.377 93.7798 163.527L116.177 150.594Z" fill="#F6D22E"/>
<path d="M109.069 129.507C110.79 130.496 112.506 131.497 114.227 132.486L114.222 132.491C113.065 131.86 111.478 131.972 109.734 132.978C106.56 134.811 103.38 136.644 100.206 138.483C96.6466 140.539 93.7631 145.536 93.7631 149.644C93.7631 150.002 93.7631 150.354 93.7631 150.711L89.6222 148.319L88.5381 147.693C88.5381 147.341 88.5381 146.984 88.5381 146.626C88.5381 142.518 91.4272 137.516 94.9813 135.465C98.1554 133.632 101.33 131.798 104.509 129.96C106.292 128.931 107.901 128.836 109.069 129.507Z" fill="#FFFF66"/>
<path d="M93.7745 163.527C93.8528 165.377 94.5513 166.679 95.6354 167.316C93.8975 166.316 92.1651 165.315 90.4272 164.309C89.3319 163.678 88.6278 162.37 88.5439 160.509L93.7745 163.527Z" fill="#FFFF66"/>
<path d="M115.088 149.962L93.7743 162.269C93.7631 161.979 93.7687 162.638 93.7687 151.963L116.183 139.019V148.956C116.183 149.085 116.177 149.208 116.177 149.336L115.088 149.962Z" fill="#8565FF"/>
<path d="M93.7689 151.963C93.7689 162.638 93.7689 161.979 93.7744 162.269L89.6336 159.877L88.5495 159.251C88.5383 158.983 88.5439 159.838 88.5439 148.945L93.7689 151.963Z" fill="#B28FFF"/>
<path d="M48.5823 49.8533C49.4094 50.334 50.242 50.809 51.0691 51.2897C50.5773 50.999 49.8956 51.0438 49.1412 51.4741C47.6379 52.346 46.4141 54.4586 46.4141 56.1968C46.4141 55.3249 46.1068 54.7157 45.615 54.4362C45.1121 54.1456 44.6035 53.855 44.1006 53.5644C44.4862 52.1448 45.4865 50.7196 46.6544 50.0489C47.4032 49.6074 48.085 49.5683 48.5823 49.8533Z" fill="#FFFF66"/>
<path d="M51.8628 53.0502C51.8628 53.855 51.5778 54.7325 51.1643 55.5485C49.5828 58.7118 47.9957 61.8752 46.4087 65.0329C44.911 63.563 43.324 62.2329 41.6531 61.0368C41.2228 60.7294 40.9546 60.1482 40.9546 59.3434C40.9546 57.6052 42.1728 55.4926 43.6816 54.6207C44.436 54.1848 45.1122 54.1457 45.604 54.4307C46.1013 54.7102 46.4031 55.3249 46.4031 56.1912C46.4031 54.4531 47.6269 52.3404 49.1301 51.4686C49.8846 51.0326 50.5663 50.9935 51.0581 51.2841C51.561 51.5748 51.8628 52.184 51.8628 53.0502Z" fill="#FF9016"/>
<path d="M40.9658 59.3489C40.9658 60.1537 41.2284 60.7349 41.6643 61.0423C43.3352 62.2384 44.9222 63.5685 46.4199 65.0384L43.9331 63.6021C42.4355 62.1322 40.8484 60.802 39.1775 59.606C38.7472 59.2986 38.479 58.7173 38.479 57.9125C38.479 56.1744 39.6972 54.0617 41.2061 53.1899C41.9605 52.7539 42.6422 52.7148 43.134 52.9998C43.4581 53.1843 43.7822 53.3743 44.1063 53.5587C44.6093 53.8494 45.1178 54.14 45.6207 54.4306C45.129 54.1456 44.4472 54.1847 43.6984 54.6206C42.184 55.4925 40.9658 57.6051 40.9658 59.3489Z" fill="#FFFF66"/>
<path d="M193.53 123.549V125.567C193.53 123.84 191.814 122.431 189.691 122.431C187.657 122.431 185.991 123.728 185.863 125.365H185.852V123.549C185.852 121.817 187.567 120.414 189.691 120.414C191.814 120.419 193.53 121.817 193.53 123.549Z" fill="#B28FFF"/>
<path d="M185.852 134.369C183.745 132.044 181.515 129.809 179.157 127.657C178.548 127.104 178.173 126.371 178.173 125.567C178.173 123.84 179.889 122.431 182.012 122.431C184.13 122.431 185.846 123.834 185.846 125.567C185.846 125.5 185.846 125.433 185.857 125.365C185.986 123.728 187.651 122.431 189.685 122.431C191.803 122.431 193.524 123.834 193.524 125.567C193.524 126.371 193.122 127.076 192.541 127.657C190.317 129.893 188.087 132.134 185.852 134.369Z" fill="#8565FF"/>
<path d="M185.864 125.372C185.858 125.439 185.853 125.506 185.853 125.573C185.853 123.846 184.137 122.438 182.019 122.438C179.901 122.438 178.18 123.841 178.18 125.573C178.18 124.897 178.18 124.226 178.18 123.556C178.18 121.907 179.801 120.42 182.019 120.42C184.137 120.42 185.853 121.823 185.853 123.556V125.372H185.864Z" fill="#B28FFF"/>
<path d="M89.8904 33.0697C89.8904 37.6973 89.8904 42.325 89.8904 46.9526C89.8904 51.815 86.4816 57.7225 82.2681 60.1537C81.6757 60.4946 81.0834 60.8355 80.491 61.182L76.2607 71.3651L72.0304 66.0668C71.4381 66.4077 70.8402 66.7486 70.2534 67.0951C70.0802 67.1957 69.9125 67.2852 69.7393 67.369C67.8393 68.3247 66.1293 68.3582 64.8608 67.6261C64.8272 67.6037 64.7937 67.587 64.7602 67.5646C63.4414 66.743 62.6255 65.0608 62.6255 62.6911C62.6255 58.0634 62.6255 53.4414 62.6255 48.8137C62.6255 43.9514 66.0399 38.0383 70.2478 35.6071C74.2546 33.2932 78.2613 30.9794 82.2681 28.6712C84.3301 27.4808 86.2022 27.341 87.5713 28.0899C87.5992 28.1011 87.6272 28.1179 87.6551 28.1347C89.041 28.9283 89.8904 30.6385 89.8904 33.0697Z" fill="#8565FF"/>
<path d="M58.6804 64.0548C57.3001 63.2612 56.4507 61.551 56.4507 59.1198C56.4507 54.4922 56.4507 49.8701 56.4507 45.2369C56.4507 40.3745 59.8595 34.467 64.073 32.0358C68.0798 29.722 72.0865 27.4082 76.0933 25.0943C78.2 23.8815 80.1056 23.7642 81.4803 24.5634C83.52 25.7371 85.5485 26.9108 87.5826 28.0844C86.2135 27.3355 84.3415 27.4752 82.2794 28.6657C78.2727 30.9795 74.2659 33.2933 70.2592 35.6015C66.0512 38.0327 62.6368 43.9402 62.6368 48.8082C62.6368 53.4358 62.6368 58.0579 62.6368 62.6855C62.6368 65.0552 63.4471 66.7431 64.7715 67.5591C62.7374 66.3966 60.7089 65.2285 58.6804 64.0548Z" fill="#B28FFF"/>
<path d="M72.0309 66.0669L76.2612 71.3652L70.075 67.7939L69.7397 67.3691C69.9074 67.2853 70.0806 67.1959 70.2539 67.0953C70.8462 66.7487 71.4386 66.4022 72.0309 66.0669Z" fill="#B28FFF"/>
<path d="M72.3658 46.8577C71.6058 47.3998 71.0303 48.3891 71.0303 49.1603V49.5236L69.9126 50.1664C69.5773 50.3564 69.3091 50.7867 69.3091 51.1221C69.3091 51.4574 69.5773 51.5692 69.9126 51.3792L71.0303 50.7364V51.0997C71.0303 51.871 71.6058 52.1951 72.3658 51.8598L72.5223 51.7927V54.1736C72.5223 54.509 72.7905 54.6207 73.1258 54.4307C73.4611 54.2407 73.7294 53.8103 73.7294 53.475V51.2562L77.0376 49.7919C77.1829 50.5632 77.9261 50.7867 78.8202 50.267C79.8205 49.6913 80.6308 48.4058 80.6308 47.411V41.7606C80.6308 40.7602 79.8205 40.4192 78.8202 40.9949C77.9261 41.5091 77.1829 42.5933 77.0376 43.5323L72.3658 46.8577ZM77.0152 48.5735L72.5279 50.5576C72.3602 50.6302 72.2373 50.5576 72.2373 50.3899V48.4561C72.2373 48.2885 72.3602 48.0705 72.5279 47.9531L77.0152 44.7618V48.5735ZM78.2223 43.1522C78.2223 42.8169 78.4905 42.3921 78.8258 42.2021C79.1555 42.0121 79.4293 42.1239 79.4293 42.4592V48.0984C79.4293 48.4338 79.1611 48.8585 78.8258 49.0486C78.4961 49.2386 78.2223 49.1268 78.2223 48.7915V43.1522Z" fill="#DCD3FE"/>
<path d="M56.451 79.5249C56.451 82.8671 56.451 103.675 56.451 106.989L49.136 104.899C40.4855 109.89 31.8349 114.886 23.19 119.877C21.167 121.045 19.3397 121.157 18.0153 120.386C16.6909 119.62 15.875 117.988 15.875 115.652C15.875 111.415 15.875 107.185 15.875 102.948C15.875 98.2814 19.1553 92.603 23.1956 90.2725C31.8461 85.276 40.4911 80.2794 49.1416 75.2885C51.1254 74.1428 52.9193 74.0198 54.2381 74.7352C55.596 75.4897 56.451 77.144 56.451 79.5249Z" fill="#F6D22E"/>
<path d="M54.2267 74.7464C52.9135 74.031 51.1141 74.154 49.1302 75.2997C40.4797 80.2906 31.8291 85.2871 23.1842 90.2836C19.1439 92.6198 15.8636 98.2926 15.8636 102.959C15.8636 107.19 15.8636 111.427 15.8636 115.663C15.8636 117.999 16.6795 119.631 18.0039 120.397V120.402C16.0257 119.262 14.0474 118.117 12.0692 116.976C10.7448 116.211 9.92334 114.568 9.92334 112.237C9.92334 108.006 9.92334 103.77 9.92334 99.5389C9.92334 94.8722 13.2036 89.1938 17.2439 86.8576C25.8945 81.8667 34.545 76.8702 43.19 71.8793C45.2129 70.7112 47.0403 70.5994 48.3647 71.3651C50.3261 72.4885 52.2764 73.6174 54.2267 74.7464Z" fill="#FFFF66"/>
<path d="M43.0002 93.2681C43.0002 89.4621 39.9043 88.1598 36.0988 90.3563C34.9979 90.9934 33.9473 91.8485 32.975 92.9104C32.12 93.8382 31.3488 94.9057 30.7453 96.0011C30.6503 96.0235 30.5497 96.0682 30.4435 96.1297C29.8903 96.4482 29.4432 97.158 29.4432 97.7113C29.4432 97.9908 29.5606 98.1752 29.745 98.2535C29.3873 99.3098 29.2085 100.31 29.2085 101.244C29.2085 105.05 32.3044 106.352 36.1099 104.155C37.3338 103.451 38.5352 102.434 39.5802 101.216C40.2788 100.405 40.9046 99.511 41.4188 98.5944C41.4299 98.5776 41.4411 98.5609 41.4523 98.5441C41.4914 98.477 42.1732 97.3369 42.6314 95.744C42.637 95.7328 42.6426 95.7217 42.6426 95.7049C42.7376 95.3807 42.8102 95.0566 42.8661 94.7436C42.9276 94.4194 42.9779 94.0841 43.0058 93.7432C43.0114 93.7041 43.0058 93.6761 42.9946 93.6482C42.9946 93.514 43.0002 93.3911 43.0002 93.2681ZM42.3911 93.3184L40.4185 94.4586C40.4129 94.1512 40.3905 93.8494 40.357 93.5643C40.6923 93.2066 40.9214 92.7316 40.9214 92.3348C40.9214 91.7926 40.4911 91.6026 39.9546 91.8877C39.7926 91.4741 39.597 91.122 39.3679 90.8314C39.6305 90.591 39.8876 90.3451 40.1335 90.088C41.4467 90.4289 42.3017 91.5523 42.3911 93.3184ZM40.3179 92.6813C40.3179 92.9048 40.1391 93.1843 39.9155 93.3128C39.692 93.4414 39.5132 93.3631 39.5132 93.1452C39.5132 92.9216 39.692 92.6422 39.9155 92.5136C40.1391 92.3851 40.3179 92.4633 40.3179 92.6813ZM39.5746 89.9986C39.4014 90.1663 39.2282 90.3283 39.0493 90.4904C38.8817 90.3339 38.6973 90.211 38.5017 90.116C38.4626 90.0992 38.4235 90.0824 38.3899 90.0657C38.8035 89.9874 39.2058 89.9651 39.5746 89.9986ZM36.4005 90.8034C37.1494 90.4792 37.8535 90.5631 38.4346 91.0158C37.792 91.5411 37.1102 92.0218 36.4005 92.4521V90.8034ZM36.4005 93.0502C37.2276 92.5527 38.0323 91.9771 38.7755 91.3511C39.0102 91.625 39.2114 91.9715 39.3735 92.3851C39.0941 92.726 38.9152 93.1396 38.9152 93.4917C38.9152 93.9891 39.2841 94.1959 39.7591 93.9947C39.787 94.2574 39.8093 94.5256 39.8149 94.8051L36.3949 96.778V93.0502H36.4005ZM36.4005 97.3816L39.8205 95.4087C39.7758 96.9568 39.4126 98.5888 38.7811 100.064C38.0323 100.299 37.2332 100.651 36.4061 101.109V100.12C36.8141 99.7569 37.1102 99.2036 37.1102 98.7565C37.1102 98.3093 36.8141 98.097 36.4061 98.2032V97.3816H36.4005ZM35.797 91.1499V92.7987C35.0873 93.1899 34.4055 93.4973 33.7629 93.7097C34.3385 92.5919 35.0426 91.692 35.797 91.1499ZM33.2432 93.2849C33.4332 93.0781 33.6232 92.8825 33.8188 92.6981C33.5785 93.0725 33.355 93.4749 33.1482 93.8997C32.9694 93.9444 32.7905 93.9835 32.6173 94.017C32.8185 93.76 33.0308 93.5196 33.2432 93.2849ZM30.4379 96.7277C30.6614 96.5991 30.8403 96.6774 30.8403 96.8953C30.8403 97.1189 30.6614 97.3984 30.4379 97.5269C30.2144 97.6554 30.0356 97.5772 30.0356 97.3592C30.0356 97.1413 30.22 96.8562 30.4379 96.7277ZM30.2758 98.2143C30.3317 98.192 30.3876 98.164 30.4435 98.1305C30.9967 97.8119 31.4438 97.1021 31.4438 96.5488C31.4438 96.3197 31.3655 96.152 31.237 96.057C31.4885 95.6099 31.7623 95.174 32.0641 94.7492C32.31 94.7157 32.567 94.671 32.8352 94.6039C32.5447 95.3137 32.2988 96.0682 32.12 96.8562C32.0753 97.0407 32.1758 97.1524 32.3323 97.1021C32.3603 97.0966 32.3826 97.0798 32.4105 97.0686C32.5447 96.9904 32.6676 96.8339 32.7011 96.6774C32.88 95.8893 33.1258 95.1348 33.422 94.4418C34.1708 94.2071 34.97 93.855 35.8026 93.3967V97.1245L32.3826 99.0974C32.3938 98.7788 32.4161 98.4547 32.4497 98.1305C32.4664 97.9517 32.3491 97.8734 32.187 97.9461C32.025 98.0243 31.8741 98.2255 31.8517 98.4044C31.8126 98.7565 31.7903 99.103 31.7791 99.4439L29.8064 100.584C29.84 99.8407 29.9964 99.0415 30.2758 98.2143ZM29.8064 101.188L31.7791 100.048C31.8182 101.596 32.187 102.864 32.8297 103.675C32.567 103.915 32.31 104.161 32.0641 104.418C30.7508 104.077 29.8903 102.954 29.8064 101.188ZM32.6229 104.507C32.7961 104.34 32.9694 104.178 33.1482 104.016C33.355 104.2 33.5729 104.345 33.8076 104.44C33.3885 104.519 32.9917 104.541 32.6229 104.507ZM35.797 103.703C35.0538 104.032 34.3497 103.954 33.7629 103.49C34.4055 102.965 35.0873 102.484 35.797 102.054V103.703ZM35.797 101.456C34.9699 101.959 34.1652 102.529 33.422 103.155C32.7905 102.412 32.4217 101.199 32.3826 99.701L35.8026 97.7281V98.5553C35.3947 98.9185 35.0985 99.4718 35.0985 99.919C35.0985 100.366 35.3947 100.578 35.8026 100.472V101.456H35.797ZM36.0988 99.7401C35.8752 99.8687 35.6964 99.7904 35.6964 99.5725C35.6964 99.3489 35.8752 99.0694 36.0988 98.9409C36.3223 98.8124 36.5011 98.8906 36.5011 99.1086C36.5011 99.3265 36.3167 99.6116 36.0988 99.7401ZM36.4005 103.356V101.707C37.1046 101.316 37.792 101.014 38.4346 100.796C37.8479 101.937 37.1438 102.825 36.4005 103.356ZM39.2673 100.869C38.9823 101.199 38.6917 101.512 38.3843 101.802C38.6191 101.434 38.837 101.037 39.0438 100.612C39.2226 100.567 39.4014 100.528 39.5746 100.495C39.4741 100.623 39.3735 100.746 39.2673 100.869ZM40.1335 99.7569C39.8876 99.7904 39.6305 99.8351 39.3623 99.9022C40.0049 98.3541 40.3738 96.6606 40.4129 95.0622L42.3855 93.922C42.3688 94.2518 42.3296 94.5871 42.2682 94.9336C42.0949 95.839 41.8043 96.655 41.5473 97.2642C41.5361 97.281 41.5305 97.2977 41.5193 97.3145C41.1561 98.1529 40.6867 98.9744 40.1335 99.7569Z" fill="#FF9016"/>
<path d="M110.623 78.2731C110.623 84.7562 110.623 91.2338 110.623 97.717C110.623 104.524 105.845 112.802 99.9493 116.205C99.1166 116.686 98.2896 117.161 97.4569 117.642L91.5334 131.904L85.6099 124.488C84.7773 124.963 83.9446 125.444 83.1176 125.924C82.8773 126.064 82.637 126.193 82.4023 126.31C79.7367 127.646 77.3449 127.696 75.5679 126.673C75.5232 126.645 75.4729 126.617 75.4282 126.589C73.5785 125.444 72.4385 123.085 72.4385 119.765C72.4385 113.288 72.4385 106.805 72.4385 100.327C72.4385 93.5141 77.222 85.2369 83.1176 81.8332C88.7281 78.5972 94.3387 75.3556 99.9493 72.114C102.838 70.443 105.459 70.2529 107.382 71.2981C107.421 71.3148 107.46 71.3372 107.499 71.3651C109.432 72.4773 110.623 74.8694 110.623 78.2731Z" fill="#F6D22E"/>
<path d="M66.9119 121.671C64.9784 120.559 63.7881 118.161 63.7881 114.763C63.7881 108.286 63.7881 101.803 63.7881 95.3194C63.7881 88.5121 68.566 80.2348 74.4616 76.8312C80.0721 73.5952 85.6827 70.3536 91.2933 67.112C94.2439 65.4074 96.9094 65.2509 98.8374 66.3687C101.693 68.0118 104.532 69.655 107.382 71.3037C105.465 70.2586 102.839 70.4486 99.9494 72.1197C94.3389 75.3557 88.7283 78.5973 83.1177 81.8389C77.2222 85.2425 72.4386 93.5197 72.4386 100.333C72.4386 106.81 72.4386 113.293 72.4386 119.771C72.4386 123.091 73.5786 125.449 75.4283 126.595C72.5895 124.952 69.7507 123.314 66.9119 121.671Z" fill="#FFFF66"/>
<path d="M85.6158 124.488L91.5394 131.905L82.8776 126.902L82.4082 126.304C82.6429 126.187 82.8832 126.059 83.1235 125.919C83.9506 125.444 84.7832 124.963 85.6158 124.488Z" fill="#FFFF66"/>
<path d="M91.5336 111.622C91.3548 111.622 91.1815 111.55 91.0474 111.427C88.8624 109.28 86.5265 107.319 84.0957 105.581C83.2463 104.971 82.7769 103.882 82.7769 102.512C82.7769 99.6731 84.6992 96.3421 87.1524 94.9281C88.4489 94.1792 89.7062 94.0786 90.6898 94.6487C90.9356 94.7884 91.1536 94.9616 91.3436 95.174C92.0701 93.1564 93.5174 91.2562 95.2162 90.2725C96.5239 89.518 97.7868 89.423 98.7647 89.9987C99.7427 90.5576 100.285 91.6977 100.285 93.2011C100.285 94.4027 99.9159 95.7497 99.1838 97.2084C96.8424 101.886 94.4953 106.564 92.1483 111.248C92.0477 111.443 91.8633 111.583 91.6454 111.622C91.6118 111.617 91.5727 111.622 91.5336 111.622ZM89.2927 95.6658C88.8624 95.6658 88.3707 95.8223 87.8454 96.1241C85.8448 97.2755 84.1571 100.204 84.1571 102.512C84.1571 103.423 84.4198 104.116 84.8948 104.457C87.1301 106.056 89.2927 107.844 91.3324 109.783C93.5398 105.385 95.7415 100.987 97.9433 96.588C98.5691 95.3417 98.8988 94.168 98.8988 93.2011C98.8988 92.2175 98.6027 91.5021 98.0662 91.1947C97.5241 90.8761 96.7586 90.9767 95.898 91.4686C93.903 92.6255 92.2098 95.5541 92.2098 97.8567C92.2098 98.2368 91.9024 98.5497 91.5168 98.5497C91.1368 98.5497 90.8239 98.2423 90.8239 97.8567C90.8239 96.8786 90.5221 96.1465 89.9912 95.8503C89.8012 95.7273 89.5609 95.6658 89.2927 95.6658Z" fill="#FF9016"/>
<path d="M195.016 166.17C195.016 166.662 194.821 166.953 194.608 167.07C186.528 171.742 178.442 176.409 170.361 181.076V178.885L168.316 177.706C176.424 173.022 184.527 168.339 192.636 163.661C192.915 163.504 193.289 163.588 193.586 163.739C193.994 163.94 194.267 164.264 194.496 164.639C194.787 165.103 195.016 165.634 195.016 166.17Z" fill="#8565FF"/>
<path d="M180.945 151.807C181.18 152.382 181.297 153.115 181.247 154.009C182.487 153.377 183.599 153.344 184.421 153.819C185.309 154.322 185.857 155.412 185.857 156.971C185.857 160.09 183.672 163.879 180.967 165.438C174.591 169.127 168.209 172.804 161.828 176.493C160.447 177.292 159.196 177.348 158.307 176.795C157.458 176.27 156.938 175.191 156.938 173.671C156.938 170.954 158.603 167.73 160.816 165.908C159.101 161.688 162.493 154.389 167.114 151.723C168.953 150.661 170.612 150.549 171.825 151.225C171.836 151.237 171.853 151.237 171.864 151.248C172.68 151.717 173.284 152.544 173.596 153.673C175.642 150.683 178.274 149.644 179.855 150.532C180.33 150.795 180.705 151.214 180.945 151.807Z" fill="#8565FF"/>
<path d="M180.945 151.807C182.107 152.472 183.264 153.148 184.421 153.813L184.415 153.819C183.599 153.344 182.482 153.377 181.241 154.009C181.297 153.114 181.185 152.382 180.945 151.807Z" fill="#B28FFF"/>
<path d="M171.21 145.536C174.094 147.201 176.983 148.873 179.867 150.538C178.285 149.649 175.648 150.689 173.608 153.679C173.295 152.544 172.686 151.717 171.875 151.253C171.864 151.242 171.848 151.242 171.836 151.231C169.797 150.046 167.751 148.873 165.712 147.693C166.354 146.95 167.075 146.318 167.841 145.877C169.154 145.111 170.344 145.039 171.21 145.536Z" fill="#A76CFF"/>
<path d="M170.361 181.076V183.144L166.667 185.268V181.009L170.361 178.885V181.076Z" fill="#F6D22E"/>
<path d="M170.361 178.885L166.667 181.009L162.839 178.801L166.528 176.666L168.316 177.706L170.361 178.885Z" fill="#FFFF66"/>
<path d="M166.667 181.009V185.268L164.885 184.234C165.153 184.077 165.421 183.926 165.689 183.764C165.952 183.641 166.153 183.339 166.153 182.831C166.153 181.87 165.376 180.651 164.583 180.327C164.276 180.198 164.013 180.204 163.817 180.288C163.784 180.299 163.756 180.321 163.728 180.338C163.432 180.511 163.13 180.679 162.834 180.852V178.79L166.667 181.009Z" fill="#FFFF66"/>
<path d="M163.247 146.268C164.063 146.738 164.89 147.218 165.706 147.688C167.746 148.867 169.791 150.041 171.831 151.226C170.618 150.544 168.953 150.655 167.12 151.723C162.498 154.389 159.106 161.688 160.822 165.908L152.16 160.906C150.439 156.68 153.848 149.381 158.458 146.715C160.319 145.648 162.001 145.547 163.214 146.246C163.225 146.257 163.236 146.263 163.247 146.268Z" fill="#B28FFF"/>
<path d="M152.16 160.906L160.822 165.908C158.609 167.724 156.944 170.954 156.944 173.671C156.944 175.191 157.463 176.27 158.313 176.795V176.8C155.452 175.146 152.579 173.492 149.718 171.832C148.835 171.323 148.282 170.228 148.282 168.669C148.276 165.952 149.942 162.716 152.16 160.906Z" fill="#A76CFF"/>
<path d="M140.967 197.379C140.928 195.836 139.413 194.383 138.592 194.875L138.586 194.869C146.667 190.197 154.753 185.53 162.834 180.864C163.13 180.69 163.432 180.523 163.728 180.349C163.756 180.333 163.784 180.31 163.817 180.299C164.013 180.21 164.27 180.204 164.583 180.338C165.376 180.662 166.153 181.881 166.153 182.842C166.153 183.351 165.952 183.652 165.689 183.775C165.421 183.932 165.153 184.083 164.885 184.245C156.776 188.923 148.668 193.606 140.559 198.284L140.553 198.279C140.676 198.206 140.771 198.1 140.838 197.983C140.945 197.798 140.978 197.591 140.967 197.379Z" fill="#8565FF"/>
<path d="M139.76 198.273C138.62 197.792 137.854 195.954 138.307 195.171C138.385 195.032 138.48 194.937 138.592 194.869C139.408 194.378 140.922 195.836 140.967 197.373C140.978 197.586 140.945 197.792 140.844 197.977C140.777 198.094 140.676 198.2 140.559 198.273C140.498 198.312 140.436 198.34 140.369 198.357C140.168 198.407 139.955 198.357 139.76 198.273Z" fill="#B28FFF"/>
<path d="M168.154 165.818C168.154 166.752 167.394 167.953 166.46 168.49C165.527 169.032 164.767 168.708 164.767 167.774C164.767 166.841 165.527 165.639 166.46 165.103C167.394 164.561 168.154 164.879 168.154 165.818Z" fill="#DCD3FE"/>
<path d="M173.524 162.716C173.524 163.65 172.764 164.851 171.831 165.388C170.897 165.93 170.137 165.606 170.137 164.672C170.137 163.739 170.897 162.537 171.831 162.001C172.764 161.459 173.524 161.777 173.524 162.716Z" fill="#DCD3FE"/>
<path d="M178.894 159.614C178.894 160.548 178.134 161.749 177.201 162.286C176.268 162.828 175.508 162.504 175.508 161.571C175.508 160.637 176.268 159.436 177.201 158.899C178.134 158.357 178.894 158.681 178.894 159.614Z" fill="#DCD3FE"/>
<path d="M144.868 80.5701C144.868 83.6607 144.868 86.7514 144.868 89.8421C144.868 93.2514 142.476 97.3928 139.525 99.0974C134.993 101.719 130.456 104.334 125.924 106.95L120.581 114.646C120.581 112.226 120.581 97.0351 120.581 94.5983C120.581 91.189 122.973 87.0476 125.924 85.343C130.456 82.7274 134.993 80.1118 139.525 77.4905C140.973 76.6578 142.28 76.5628 143.241 77.0826C144.242 77.6191 144.868 78.8319 144.868 80.5701Z" fill="#8565FF"/>
<path d="M137.793 73.9304C139.609 74.9756 141.425 76.0263 143.241 77.077C142.28 76.5573 140.973 76.6523 139.525 77.485C134.993 80.1062 130.456 82.7218 125.924 85.3375C122.973 87.0421 120.581 91.1835 120.581 94.5927C120.581 97.0295 120.581 112.22 120.581 114.64L115.01 111.421C115.01 109.001 115.01 93.8103 115.01 91.3679C115.01 87.9643 117.402 83.8173 120.352 82.1127C124.89 79.497 129.422 76.8758 133.954 74.2602C135.429 73.4107 136.765 73.3268 137.731 73.8857C137.748 73.9025 137.771 73.9137 137.793 73.9304Z" fill="#B28FFF"/>
<path d="M131.031 96.7333C131.931 97.1748 132.82 97.2195 132.915 97.2251C132.954 97.2307 132.998 97.2139 133.049 97.186C133.099 97.158 133.149 97.1133 133.188 97.063C133.322 96.9065 134.189 95.8502 135.066 94.4027C136.312 92.3515 136.972 90.496 136.972 89.0373C136.972 87.9866 136.564 87.2376 135.82 86.9247C135.077 86.6117 134.094 86.7738 133.049 87.3774C130.886 88.6293 129.126 91.4014 129.126 93.5643C129.126 95.023 129.785 96.1185 131.031 96.7333ZM133.049 87.858C133.971 87.3271 134.831 87.1874 135.485 87.4612C136.133 87.7351 136.491 88.3946 136.491 89.3111C136.491 90.9878 135.53 92.9272 134.725 94.2574C134.032 95.4031 133.328 96.3085 133.049 96.655C132.769 96.6271 132.065 96.5376 131.372 96.1911C130.568 95.7943 129.606 94.9616 129.606 93.2849C129.606 91.3902 131.149 88.959 133.049 87.858Z" fill="#DCD3FE"/>
<path d="M135.2 90.278C135.2 88.9925 134.094 88.6516 132.831 89.5067C131.724 90.2556 130.897 91.6641 130.897 92.7651C130.897 93.3519 131.138 93.7543 131.529 93.922C132.54 94.3523 134.233 93.1339 134.932 91.4796C135.1 91.0716 135.2 90.658 135.2 90.278ZM131.372 92.4856C131.372 91.5523 132.132 90.373 133.043 89.8476C133.971 89.3111 134.714 89.6353 134.714 90.5519C134.714 91.474 133.965 92.6589 133.043 93.1898C132.121 93.7264 131.372 93.4078 131.372 92.4856Z" fill="#DCD3FE"/>
<path d="M170.4 110.281C170.4 115.087 170.4 119.888 170.4 124.689C170.4 129.982 166.684 136.42 162.102 139.07C155.06 143.138 148.014 147.207 140.967 151.276L132.668 163.231C132.668 159.469 132.668 135.867 132.668 132.078C132.668 126.785 136.385 120.347 140.967 117.692C148.008 113.629 155.055 109.56 162.102 105.491C164.348 104.195 166.382 104.049 167.88 104.86C169.433 105.704 170.4 107.581 170.4 110.281Z" fill="#F6D22E"/>
<path d="M159.408 99.9693C162.236 101.596 165.052 103.228 167.874 104.86C166.382 104.049 164.348 104.2 162.096 105.491C155.055 109.56 148.008 113.629 140.961 117.692C136.379 120.341 132.663 126.779 132.663 132.078C132.663 135.867 132.663 159.469 132.663 163.23L124.001 158.228C124.001 154.467 124.001 130.871 124.001 127.07C124.001 121.777 127.717 115.339 132.3 112.69C139.346 108.627 146.388 104.552 153.434 100.489C155.726 99.1645 157.804 99.0416 159.302 99.9079C159.336 99.9246 159.375 99.947 159.408 99.9693Z" fill="#FFFF66"/>
<path d="M160.012 117.848L146.242 125.801L141.599 124.952C141.33 124.902 140.973 125.075 140.677 125.399C140.375 125.723 140.185 126.137 140.185 126.472V140.869C140.185 142.356 141.392 142.864 142.873 142.009L148.824 138.572L152.216 136.616L160.012 132.117C161.493 131.262 162.7 129.356 162.7 127.875V119C162.7 117.502 161.493 116.988 160.012 117.848ZM160.939 128.875C160.939 129.39 160.52 130.049 160.012 130.345L152.216 134.844L148.824 136.8L142.873 140.238C142.359 140.534 141.945 140.355 141.945 139.841V127.221L145.415 127.858C145.566 127.886 145.756 127.841 145.946 127.73L160.012 119.609C160.526 119.313 160.939 119.492 160.939 120.006V128.875Z" fill="#FF9016"/>
<path d="M157.581 127.528L145.851 134.302C145.365 134.582 144.968 135.202 144.968 135.688C144.968 136.174 145.359 136.342 145.851 136.063L157.581 129.289C158.067 129.009 158.464 128.389 158.464 127.903C158.458 127.417 158.067 127.249 157.581 127.528Z" fill="#FF9016"/>
<path d="M145.851 132.072L156.407 125.975C156.894 125.695 157.29 125.075 157.29 124.589C157.29 124.102 156.899 123.935 156.407 124.214L145.851 130.312C145.365 130.591 144.968 131.212 144.968 131.698C144.968 132.184 145.365 132.352 145.851 132.072Z" fill="#FF9016"/>
<path d="M141.129 64.2561C138.279 65.8992 135.429 67.5479 132.579 69.1911C134.015 68.2969 134.898 66.4637 134.898 63.8816C134.898 59.0807 134.898 54.2742 134.898 49.4733C134.898 44.1806 131.182 37.7421 126.6 35.093C119.558 31.0242 112.512 26.9555 105.465 22.8867C103.219 21.5901 101.184 21.4448 99.6868 22.2552C102.542 20.6009 105.398 18.9521 108.253 17.3034C109.757 16.4371 111.83 16.5656 114.121 17.8846C121.162 21.9534 128.209 26.0221 135.256 30.0909C139.838 32.7344 143.554 39.1729 143.554 44.4712C143.554 49.2721 143.554 54.073 143.554 58.8795C143.56 61.5286 142.627 63.3842 141.129 64.2561Z" fill="#F6D22E"/>
<path d="M134.898 49.4733C134.898 54.2742 134.898 59.0807 134.898 63.8816C134.898 66.4637 134.015 68.2968 132.579 69.1911C132.54 69.2134 132.506 69.2302 132.467 69.2581C130.964 70.13 128.891 70.0015 126.6 68.6769C119.558 64.6137 112.512 60.5394 105.465 56.4762L97.1665 58.8459C97.1665 55.0846 97.1665 31.4881 97.1665 27.6932C97.1665 25.0496 98.0942 23.1885 99.5974 22.3166C99.6309 22.2999 99.6589 22.2775 99.6924 22.2663C101.184 21.4504 103.219 21.6013 105.471 22.8979C112.512 26.9666 119.558 31.0354 126.605 35.1041C131.182 37.7421 134.898 44.1806 134.898 49.4733Z" fill="#FFFF66"/>
<path d="M121.302 49.8869L111.511 38.5861C111.277 38.3178 110.992 38.1501 110.757 38.1501C110.522 38.1501 110.383 38.3178 110.383 38.5861V49.8702C110.383 50.1384 110.528 50.4682 110.757 50.742C110.874 50.8762 111.003 50.9879 111.131 51.0606C111.26 51.1332 111.388 51.178 111.506 51.178L114.395 51.1835H114.4L121.302 51.1947C121.537 51.1947 121.682 51.0271 121.682 50.7588C121.682 50.4849 121.537 50.1552 121.302 49.8869ZM114.937 49.4454C114.937 49.4454 114.937 49.4398 114.937 49.4454L111.886 49.4398V40.7602L119.419 49.4454H114.937Z" fill="#FF9016"/>
<path d="M215.748 97.7449C217.419 98.7118 217.419 100.271 215.748 101.238C214.077 102.205 211.367 102.205 209.696 101.238C208.025 100.271 208.025 98.7062 209.696 97.7449C211.367 96.7836 214.077 96.7836 215.748 97.7449Z" fill="#F8F8F8"/>
</g>
<defs>
<linearGradient id="paint0_linear" x1="26.6635" y1="152.831" x2="203.89" y2="152.831" gradientUnits="userSpaceOnUse">
<stop stop-color="#C4B8E9"/>
<stop offset="0.4166" stop-color="#B2CFDE"/>
<stop offset="1" stop-color="#FFCADE"/>
</linearGradient>
<clipPath id="clip0">
<rect width="231" height="213" fill="white" transform="translate(-14)"/>
</clipPath>
</defs>
</svg>
