<svg width="107" height="83" viewBox="0 0 107 83" fill="none" xmlns="http://www.w3.org/2000/svg">
<path d="M11.1687 28.1708C6.2913 31.1159 2.82728 35.8629 1.21245 41.2793C-0.460969 46.8874 -1.2336 54.6483 4.58492 59.7607C14.6108 68.5636 45.7064 58.7549 59.5515 75.4417C73.3965 92.1285 118.714 80.1453 104.155 49.601C89.5961 19.0567 86.447 -1.70054 57.2848 14.8669C33.0001 28.7026 22.5605 21.2927 11.1687 28.1708Z" fill="url(#paint0_linear)"/>
<path d="M16.0001 77C3.78723 72.8473 2.92567 58.5 5.48725 49.3221C12.2496 25.0934 75.5279 -20.2716 92.8743 14.0555C110.221 48.3827 98.0464 85.235 71.7948 78.7464C44.5 72 31.2663 82.1909 16.0001 77Z" stroke="url(#paint1_linear)" stroke-width="0.5"/>
<g style="mix-blend-mode:multiply">
<path d="M82.9281 6.75143H24.1973V75.2934H82.9281V6.75143Z" fill="#E6E7E8"/>
</g>
<path d="M85.2933 14.9248H26.5625V72.9561H85.2933V14.9248Z" fill="#F9FBFC"/>
<path d="M85.2933 4.41409H26.5625V14.9248H85.2933V4.41409Z" fill="url(#paint2_linear)"/>
<path d="M46.1565 21.8463H34.9588C34.1904 21.8463 33.5674 22.4618 33.5674 23.2212V34.2854C33.5674 35.0448 34.1904 35.6603 34.9588 35.6603H46.1565C46.925 35.6603 47.5479 35.0448 47.5479 34.2854V23.2212C47.5479 22.4618 46.925 21.8463 46.1565 21.8463Z" fill="#E1E4F9"/>
<path d="M61.5178 35.8412H50.3311C50.1244 35.8412 49.9196 35.801 49.7286 35.7228C49.5376 35.6446 49.364 35.53 49.2178 35.3855C49.0716 35.2411 48.9556 35.0696 48.8765 34.8808C48.7973 34.692 48.7566 34.4897 48.7566 34.2854V23.2212C48.7566 23.0169 48.7973 22.8146 48.8765 22.6258C48.9556 22.437 49.0716 22.2655 49.2178 22.1211C49.364 21.9766 49.5376 21.862 49.7286 21.7838C49.9196 21.7056 50.1244 21.6654 50.3311 21.6654H61.5178C61.9351 21.6663 62.335 21.8306 62.6301 22.1221C62.9252 22.4137 63.0914 22.8088 63.0923 23.2212V34.2854C63.0914 34.6978 62.9252 35.0929 62.6301 35.3845C62.335 35.6761 61.9351 35.8403 61.5178 35.8412ZM50.3311 22.0272C50.0107 22.0272 49.7033 22.153 49.4767 22.3769C49.2501 22.6008 49.1228 22.9045 49.1228 23.2212V34.2854C49.1228 34.6021 49.2501 34.9058 49.4767 35.1297C49.7033 35.3536 50.0107 35.4794 50.3311 35.4794H61.5178C61.8383 35.4794 62.1456 35.3536 62.3722 35.1297C62.5988 34.9058 62.7262 34.6021 62.7262 34.2854V23.2212C62.7262 22.9045 62.5988 22.6008 62.3722 22.3769C62.1456 22.153 61.8383 22.0272 61.5178 22.0272H50.3311Z" fill="#E1E4F9"/>
<path d="M76.897 21.8463H65.6993C64.9308 21.8463 64.3079 22.4618 64.3079 23.2212V34.2854C64.3079 35.0448 64.9308 35.6603 65.6993 35.6603H76.897C77.6654 35.6603 78.2884 35.0448 78.2884 34.2854V23.2212C78.2884 22.4618 77.6654 21.8463 76.897 21.8463Z" fill="#E1E4F9"/>
<path d="M46.1382 51.0157H34.9588C34.5415 51.0147 34.1416 50.8505 33.8465 50.5589C33.5514 50.2674 33.3852 49.8722 33.3843 49.4599V38.4101C33.3852 37.9978 33.5514 37.6026 33.8465 37.311C34.1416 37.0195 34.5415 36.8553 34.9588 36.8543H46.1382C46.3449 36.8543 46.5497 36.8946 46.7407 36.9727C46.9317 37.0509 47.1053 37.1655 47.2515 37.31C47.3977 37.4545 47.5137 37.626 47.5929 37.8147C47.672 38.0035 47.7127 38.2058 47.7127 38.4101V49.4744C47.7088 49.8845 47.5413 50.2765 47.2464 50.5651C46.9515 50.8538 46.5532 51.0157 46.1382 51.0157ZM34.9588 37.2161C34.6383 37.2161 34.331 37.3419 34.1044 37.5658C33.8778 37.7897 33.7505 38.0934 33.7505 38.4101V49.4744C33.7505 49.791 33.8778 50.0947 34.1044 50.3186C34.331 50.5426 34.6383 50.6683 34.9588 50.6683H46.1382C46.2968 50.6683 46.454 50.6375 46.6006 50.5775C46.7472 50.5175 46.8804 50.4295 46.9926 50.3186C47.1048 50.2078 47.1938 50.0761 47.2545 49.9313C47.3153 49.7864 47.3465 49.6312 47.3465 49.4744V38.4101C47.3465 38.0934 47.2192 37.7897 46.9926 37.5658C46.766 37.3419 46.4586 37.2161 46.1382 37.2161H34.9588Z" fill="#E1E4F9"/>
<path d="M61.5285 37.0352H50.3309C49.5624 37.0352 48.9395 37.6508 48.9395 38.4101V49.4744C48.9395 50.2337 49.5624 50.8493 50.3309 50.8493H61.5285C62.297 50.8493 62.92 50.2337 62.92 49.4744V38.4101C62.92 37.6508 62.297 37.0352 61.5285 37.0352Z" fill="#E1E4F9"/>
<path d="M76.8969 51.0157H65.6993C65.282 51.0147 64.8821 50.8505 64.587 50.5589C64.2919 50.2674 64.1257 49.8722 64.1248 49.4599V38.4101C64.1257 37.9978 64.2919 37.6026 64.587 37.311C64.8821 37.0195 65.282 36.8553 65.6993 36.8543H76.8969C77.3142 36.8553 77.7142 37.0195 78.0092 37.311C78.3043 37.6026 78.4705 37.9978 78.4715 38.4101V49.4744C78.4667 49.8842 78.2988 50.2756 78.0041 50.5641C77.7095 50.8525 77.3117 51.0148 76.8969 51.0157ZM65.6993 37.2016C65.3788 37.2016 65.0715 37.3274 64.8449 37.5514C64.6182 37.7753 64.4909 38.079 64.4909 38.3956V49.4599C64.4909 49.7766 64.6182 50.0802 64.8449 50.3042C65.0715 50.5281 65.3788 50.6539 65.6993 50.6539H76.8969C77.2174 50.6539 77.5248 50.5281 77.7514 50.3042C77.978 50.0802 78.1053 49.7766 78.1053 49.4599V38.4101C78.1053 38.0934 77.978 37.7897 77.7514 37.5658C77.5248 37.3419 77.2174 37.2161 76.8969 37.2161L65.6993 37.2016Z" fill="#E1E4F9"/>
<path d="M46.1382 53.3096C46.2159 53.3096 46.2904 53.3401 46.3453 53.3943C46.4002 53.4486 46.4311 53.5222 46.4311 53.599V64.6596C46.4311 64.7364 46.4002 64.81 46.3453 64.8643C46.2904 64.9186 46.2159 64.9491 46.1382 64.9491H34.9588C34.8812 64.9491 34.8066 64.9186 34.7517 64.8643C34.6968 64.81 34.6659 64.7364 34.6659 64.6596V53.599C34.6659 53.561 34.6735 53.5234 34.6882 53.4882C34.7029 53.4531 34.7245 53.4212 34.7517 53.3943C34.7789 53.3675 34.8112 53.3461 34.8467 53.3316C34.8823 53.317 34.9204 53.3096 34.9588 53.3096H46.1382ZM46.1382 52.2241H34.9588C34.7761 52.2241 34.5952 52.2597 34.4264 52.3288C34.2575 52.3979 34.1041 52.4991 33.9749 52.6268C33.8457 52.7545 33.7432 52.9061 33.6733 53.0729C33.6034 53.2397 33.5674 53.4185 33.5674 53.599V64.6596C33.5674 65.0243 33.714 65.374 33.9749 65.6318C34.2359 65.8897 34.5898 66.0345 34.9588 66.0345H46.1382C46.3209 66.0345 46.5018 65.999 46.6707 65.9299C46.8395 65.8608 46.9929 65.7595 47.1221 65.6318C47.2513 65.5042 47.3538 65.3526 47.4237 65.1858C47.4936 65.019 47.5296 64.8402 47.5296 64.6596V53.599C47.5296 53.4185 47.4936 53.2397 47.4237 53.0729C47.3538 52.9061 47.2513 52.7545 47.1221 52.6268C46.9929 52.4991 46.8395 52.3979 46.6707 52.3288C46.5018 52.2597 46.3209 52.2241 46.1382 52.2241Z" fill="#E1E4F9"/>
<path d="M61.5178 66.2119H50.3311C50.1244 66.2119 49.9196 66.1716 49.7286 66.0934C49.5376 66.0152 49.364 65.9006 49.2178 65.7562C49.0716 65.6117 48.9556 65.4402 48.8765 65.2514C48.7973 65.0627 48.7566 64.8604 48.7566 64.6561V53.599C48.7566 53.3947 48.7973 53.1924 48.8765 53.0037C48.9556 52.8149 49.0716 52.6434 49.2178 52.4989C49.364 52.3545 49.5376 52.2399 49.7286 52.1617C49.9196 52.0835 50.1244 52.0432 50.3311 52.0432H61.5178C61.9351 52.0442 62.335 52.2084 62.6301 52.5C62.9252 52.7915 63.0914 53.1867 63.0923 53.599V64.6597C63.0904 65.0714 62.9238 65.4656 62.6288 65.7564C62.3338 66.0472 61.9345 66.2109 61.5178 66.2119ZM50.3238 52.4014C50.0033 52.4014 49.696 52.5272 49.4694 52.7512C49.2428 52.9751 49.1154 53.2788 49.1154 53.5954V64.6561C49.1154 64.8129 49.1467 64.9681 49.2074 65.113C49.2682 65.2578 49.3572 65.3895 49.4694 65.5003C49.5816 65.6112 49.7148 65.6992 49.8614 65.7592C50.008 65.8192 50.1651 65.85 50.3238 65.85H61.5178C61.6765 65.85 61.8336 65.8192 61.9802 65.7592C62.1268 65.6992 62.26 65.6112 62.3722 65.5003C62.4844 65.3895 62.5734 65.2578 62.6342 65.113C62.6949 64.9681 62.7262 64.8129 62.7262 64.6561V53.599C62.7262 53.2824 62.5988 52.9787 62.3722 52.7548C62.1456 52.5309 61.8383 52.4051 61.5178 52.4051L50.3238 52.4014Z" fill="#E1E4F9"/>
<path d="M76.897 52.2241H65.6993C64.9308 52.2241 64.3079 52.8397 64.3079 53.599V64.6633C64.3079 65.4226 64.9308 66.0382 65.6993 66.0382H76.897C77.6654 66.0382 78.2884 65.4226 78.2884 64.6633V53.599C78.2884 52.8397 77.6654 52.2241 76.897 52.2241Z" fill="#E1E4F9"/>
<path d="M78.5706 12.0701C79.9114 12.0701 80.9983 10.9961 80.9983 9.67128C80.9983 8.34645 79.9114 7.27246 78.5706 7.27246C77.2298 7.27246 76.1428 8.34645 76.1428 9.67128C76.1428 10.9961 77.2298 12.0701 78.5706 12.0701Z" fill="#3D348B"/>
<path d="M78.5706 0C78.24 0.000957753 77.9234 0.131368 77.69 0.362644C77.4566 0.593919 77.3256 0.90719 77.3256 1.23378V9.67127C77.3164 9.83867 77.3418 10.0062 77.4003 10.1635C77.4588 10.3209 77.5492 10.4648 77.6659 10.5865C77.7826 10.7082 77.9231 10.8052 78.079 10.8714C78.2348 10.9377 78.4027 10.9718 78.5724 10.9718C78.7421 10.9718 78.9099 10.9377 79.0658 10.8714C79.2217 10.8052 79.3622 10.7082 79.4789 10.5865C79.5956 10.4648 79.6859 10.3209 79.7444 10.1635C79.803 10.0062 79.8284 9.83867 79.8192 9.67127V1.23378C79.8192 0.906564 79.6877 0.592746 79.4535 0.361367C79.2193 0.129988 78.9017 0 78.5706 0V0Z" fill="url(#paint3_linear)"/>
<path d="M33.2822 12.0701C34.623 12.0701 35.71 10.9961 35.71 9.67128C35.71 8.34645 34.623 7.27246 33.2822 7.27246C31.9414 7.27246 30.8545 8.34645 30.8545 9.67128C30.8545 10.9961 31.9414 12.0701 33.2822 12.0701Z" fill="#3D348B"/>
<path d="M33.282 0C32.9515 0.000957753 32.6348 0.131368 32.4014 0.362644C32.168 0.593919 32.037 0.90719 32.037 1.23378V9.67127C32.0278 9.83867 32.0532 10.0062 32.1118 10.1635C32.1703 10.3209 32.2606 10.4648 32.3773 10.5865C32.494 10.7082 32.6345 10.8052 32.7904 10.8714C32.9463 10.9377 33.1141 10.9718 33.2838 10.9718C33.4535 10.9718 33.6214 10.9377 33.7772 10.8714C33.9331 10.8052 34.0736 10.7082 34.1903 10.5865C34.307 10.4648 34.3974 10.3209 34.4559 10.1635C34.5144 10.0062 34.5398 9.83867 34.5306 9.67127V1.23378C34.5306 0.906564 34.3991 0.592746 34.1649 0.361367C33.9307 0.129988 33.6131 0 33.282 0V0Z" fill="url(#paint4_linear)"/>
<path d="M44.6043 12.0701C45.9451 12.0701 47.032 10.9961 47.032 9.67128C47.032 8.34645 45.9451 7.27246 44.6043 7.27246C43.2635 7.27246 42.1765 8.34645 42.1765 9.67128C42.1765 10.9961 43.2635 12.0701 44.6043 12.0701Z" fill="#3D348B"/>
<path d="M44.6042 0C44.2737 0.000957753 43.9571 0.131368 43.7237 0.362644C43.4903 0.593919 43.3593 0.90719 43.3593 1.23378V9.67127C43.3501 9.83867 43.3755 10.0062 43.434 10.1635C43.4925 10.3209 43.5829 10.4648 43.6996 10.5865C43.8162 10.7082 43.9568 10.8052 44.1127 10.8714C44.2685 10.9377 44.4364 10.9718 44.6061 10.9718C44.7757 10.9718 44.9436 10.9377 45.0995 10.8714C45.2553 10.8052 45.3959 10.7082 45.5126 10.5865C45.6293 10.4648 45.7196 10.3209 45.7781 10.1635C45.8366 10.0062 45.8621 9.83867 45.8529 9.67127V1.23378C45.8529 0.906564 45.7213 0.592746 45.4872 0.361367C45.253 0.129988 44.9354 0 44.6042 0V0Z" fill="url(#paint5_linear)"/>
<path d="M55.9263 12.0701C57.2671 12.0701 58.354 10.9961 58.354 9.67128C58.354 8.34645 57.2671 7.27246 55.9263 7.27246C54.5855 7.27246 53.4985 8.34645 53.4985 9.67128C53.4985 10.9961 54.5855 12.0701 55.9263 12.0701Z" fill="#3D348B"/>
<path d="M55.9263 0C55.5957 0.000957753 55.2791 0.131368 55.0457 0.362644C54.8123 0.593919 54.6813 0.90719 54.6813 1.23378V9.67127C54.6721 9.83867 54.6975 10.0062 54.756 10.1635C54.8145 10.3209 54.9049 10.4648 55.0216 10.5865C55.1383 10.7082 55.2788 10.8052 55.4347 10.8714C55.5905 10.9377 55.7584 10.9718 55.9281 10.9718C56.0978 10.9718 56.2656 10.9377 56.4215 10.8714C56.5774 10.8052 56.7179 10.7082 56.8346 10.5865C56.9513 10.4648 57.0416 10.3209 57.1001 10.1635C57.1587 10.0062 57.1841 9.83867 57.1749 9.67127V1.23378C57.1749 0.906564 57.0434 0.592746 56.8092 0.361367C56.575 0.129988 56.2574 0 55.9263 0V0Z" fill="url(#paint6_linear)"/>
<path d="M67.2483 12.0701C68.5891 12.0701 69.676 10.9961 69.676 9.67128C69.676 8.34645 68.5891 7.27246 67.2483 7.27246C65.9075 7.27246 64.8206 8.34645 64.8206 9.67128C64.8206 10.9961 65.9075 12.0701 67.2483 12.0701Z" fill="#3D348B"/>
<path d="M67.2483 0C66.9178 0.000957753 66.6011 0.131368 66.3677 0.362644C66.1343 0.593919 66.0033 0.90719 66.0033 1.23378V9.67127C65.9941 9.83867 66.0196 10.0062 66.0781 10.1635C66.1366 10.3209 66.2269 10.4648 66.3436 10.5865C66.4603 10.7082 66.6008 10.8052 66.7567 10.8714C66.9126 10.9377 67.0805 10.9718 67.2501 10.9718C67.4198 10.9718 67.5877 10.9377 67.7435 10.8714C67.8994 10.8052 68.04 10.7082 68.1566 10.5865C68.2733 10.4648 68.3637 10.3209 68.4222 10.1635C68.4807 10.0062 68.5061 9.83867 68.4969 9.67127V1.23378C68.4969 0.906564 68.3654 0.592746 68.1312 0.361367C67.8971 0.129988 67.5795 0 67.2483 0V0Z" fill="url(#paint7_linear)"/>
<path d="M45.2082 55.9436L44.4503 55.1983C44.4071 55.1554 44.3557 55.1213 44.2991 55.0981C44.2426 55.0749 44.1819 55.063 44.1207 55.063C44.0595 55.063 43.9988 55.0749 43.9423 55.0981C43.8857 55.1213 43.8344 55.1554 43.7911 55.1983L38.9393 59.9923L37.3245 58.3858C37.282 58.3419 37.2308 58.307 37.1741 58.2834C37.1174 58.2597 37.0565 58.2478 36.9949 58.2483C36.9332 58.2477 36.8719 58.2592 36.8147 58.2822C36.7575 58.3051 36.7055 58.3392 36.6617 58.3822L35.9074 59.1312C35.8206 59.2179 35.772 59.3349 35.772 59.4568C35.772 59.5787 35.8206 59.6957 35.9074 59.7824L38.6098 62.4671C38.6981 62.553 38.8172 62.6012 38.9412 62.6012C39.0652 62.6012 39.1842 62.553 39.2725 62.4671L45.2119 56.5985C45.2989 56.5112 45.3477 56.3936 45.3477 56.271C45.3477 56.1485 45.2989 56.0309 45.2119 55.9436H45.2082Z" fill="url(#paint8_linear)"/>
<defs>
<linearGradient id="paint0_linear" x1="55.4393" y1="3.11158" x2="51.8356" y2="101.745" gradientUnits="userSpaceOnUse">
<stop stop-color="#46bd68"/>
<stop offset="0.49" stop-color="#46bd68"/>
<stop offset="0.83" stop-color="#46bd68"/>
<stop offset="1" stop-color="#46bd68"/>
</linearGradient>
<linearGradient id="paint1_linear" x1="16.001" y1="10" x2="108.001" y2="88.5" gradientUnits="userSpaceOnUse">
<stop stop-color="#B28FFF"/>
<stop offset="1" stop-color="#82F7FF"/>
</linearGradient>
<linearGradient id="paint2_linear" x1="46.2847" y1="-6.83468" x2="65.2265" y2="26.3737" gradientUnits="userSpaceOnUse">
<stop stop-color="#3478FF"/>
<stop offset="1" stop-color="#482EBD"/>
</linearGradient>
<linearGradient id="paint3_linear" x1="73.1182" y1="-10.7133" x2="81.3997" y2="14.4308" gradientUnits="userSpaceOnUse">
<stop stop-color="#FBD15B"/>
<stop offset="1" stop-color="#FE9373"/>
</linearGradient>
<linearGradient id="paint4_linear" x1="252.722" y1="82.1791" x2="646.394" y2="351.029" gradientUnits="userSpaceOnUse">
<stop stop-color="#FBD15B"/>
<stop offset="1" stop-color="#FE9373"/>
</linearGradient>
<linearGradient id="paint5_linear" x1="333.544" y1="-19.5299" x2="727.15" y2="249.236" gradientUnits="userSpaceOnUse">
<stop stop-color="#FBD15B"/>
<stop offset="1" stop-color="#FE9373"/>
</linearGradient>
<linearGradient id="paint6_linear" x1="414.34" y1="-121.349" x2="807.983" y2="147.365" gradientUnits="userSpaceOnUse">
<stop stop-color="#FBD15B"/>
<stop offset="1" stop-color="#FE9373"/>
</linearGradient>
<linearGradient id="paint7_linear" x1="495.165" y1="-223.058" x2="888.771" y2="45.7098" gradientUnits="userSpaceOnUse">
<stop stop-color="#FBD15B"/>
<stop offset="1" stop-color="#FE9373"/>
</linearGradient>
<linearGradient id="paint8_linear" x1="35.7683" y1="58.8309" x2="45.3437" y2="58.8309" gradientUnits="userSpaceOnUse">
<stop stop-color="#FF697D"/>
<stop offset="1" stop-color="#DE2276"/>
</linearGradient>
</defs>
</svg>
