<svg width="90" height="79" viewBox="0 0 90 79" fill="none" xmlns="http://www.w3.org/2000/svg">
<path d="M62.1112 72.3873C64.8773 69.0232 66.1485 64.6684 65.8395 60.3311C65.4406 54.7112 67.5469 47.2493 78.2385 44.4601C96.2793 39.7569 94.0831 18.1137 68.0488 16.3478C41.4074 14.5537 24.2434 -7.66224 9.88044 8.07811C0.282518 18.5949 8.69468 38.1043 17.5211 57.8227C25.245 75.0829 50.0256 87.0955 62.1112 72.3873Z" fill="url(#paint0_linear)"/>
<path d="M5.62198 50.0299C5.62198 50.0299 -8.74093 66.308 9.36997 70.5474C18.7619 72.7444 37.7254 63.5667 53.6598 68.7402C73.9231 75.3224 83.7709 70.0836 83.144 58.0318C81.8465 32.9918 79.9221 -4.67703 60.4917 0.744665C41.0613 6.16636 12.2741 42.6768 5.62198 50.0299Z" stroke="url(#paint1_linear)" stroke-width="0.5" stroke-miterlimit="10"/>
<g style="mix-blend-mode:multiply">
<g style="mix-blend-mode:multiply">
<path d="M58.973 19.0129V23.9055C58.973 24.714 58.6497 25.4894 58.0742 26.061C57.4987 26.6327 56.7182 26.9539 55.9044 26.9539C55.0906 26.9539 54.3101 26.6327 53.7346 26.061C53.1592 25.4894 52.8359 24.714 52.8359 23.9055V19.0129C52.8336 16.5753 51.8579 14.2382 50.1231 12.5143C48.3882 10.7905 46.0358 9.82072 43.5821 9.81783H42.5212C40.0683 9.82187 37.717 10.7921 35.9831 12.5159C34.2492 14.2396 33.2741 16.5761 33.2718 19.0129V46.9924C33.277 49.4274 34.2533 51.7611 35.9869 53.4824C37.7205 55.2038 40.0701 56.1726 42.5212 56.1766C43.3351 56.1766 44.1156 56.4978 44.691 57.0695C45.2665 57.6411 45.5898 58.4165 45.5898 59.225C45.5898 60.0334 45.2665 60.8088 44.691 61.3805C44.1156 61.9521 43.3351 62.2733 42.5212 62.2733C38.4408 62.2687 34.5287 60.6563 31.6434 57.79C28.758 54.9236 27.135 51.0373 27.1304 46.9837V19.0129C27.1344 14.9589 28.7572 11.0721 31.6426 8.20524C34.528 5.3384 38.4404 3.72576 42.5212 3.72115H43.5777C47.6593 3.7246 51.5728 5.33674 54.4592 8.2037C57.3455 11.0707 58.9689 14.9582 58.973 19.0129Z" fill="#E6E7E8"/>
</g>
</g>
<g style="mix-blend-mode:multiply">
<path d="M58.712 34.6989H27.4831C23.4134 34.6989 20.1143 37.9763 20.1143 42.0192V67.462C20.1143 71.5049 23.4134 74.7824 27.4831 74.7824H58.712C62.7817 74.7824 66.0809 71.5049 66.0809 67.462V42.0192C66.0809 37.9763 62.7817 34.6989 58.712 34.6989Z" fill="#E6E7E8"/>
</g>
<path d="M60.494 17.504V22.3966C60.494 23.2051 60.1707 23.9805 59.5952 24.5521C59.0198 25.1238 58.2393 25.445 57.4255 25.445C56.6116 25.445 55.8311 25.1238 55.2557 24.5521C54.6802 23.9805 54.3569 23.2051 54.3569 22.3966V17.504C54.3546 15.0664 53.379 12.7293 51.6441 11.0054C49.9092 9.28157 47.5569 8.3118 45.1031 8.30892H44.0554C41.6017 8.3118 39.2493 9.28157 37.5144 11.0054C35.7796 12.7293 34.8039 15.0664 34.8016 17.504V45.4835C34.8045 47.9207 35.7804 50.2573 37.5152 51.9807C39.25 53.7041 41.6021 54.6735 44.0554 54.6764C44.8692 54.6764 45.6497 54.9976 46.2252 55.5692C46.8007 56.1409 47.124 56.9163 47.124 57.7247C47.124 58.5332 46.8007 59.3086 46.2252 59.8803C45.6497 60.4519 44.8692 60.7731 44.0554 60.7731C39.9749 60.7685 36.0629 59.1561 33.1776 56.2898C30.2922 53.4234 28.6692 49.5371 28.6646 45.4835V17.504C28.6686 13.45 30.2914 9.56316 33.1768 6.69632C36.0622 3.82949 39.9746 2.21685 44.0554 2.21223H45.1119C49.1912 2.21915 53.1013 3.83281 55.9848 6.6994C58.8684 9.56598 60.4899 13.4515 60.494 17.504Z" fill="#4342CF"/>
<path d="M60.494 17.504V22.3966C60.494 23.2051 60.1707 23.9805 59.5952 24.5521C59.0198 25.1238 58.2393 25.445 57.4255 25.445C56.6116 25.445 55.8311 25.1238 55.2557 24.5521C54.6802 23.9805 54.3569 23.2051 54.3569 22.3966V17.504C54.3546 15.0664 53.379 12.7293 51.6441 11.0054C49.9092 9.28157 47.5569 8.3118 45.1031 8.30892H44.0554C41.6017 8.3118 39.2493 9.28157 37.5144 11.0054C35.7796 12.7293 34.8039 15.0664 34.8016 17.504V45.4835C34.8045 47.9207 35.7804 50.2573 37.5152 51.9807C39.25 53.7041 41.6021 54.6735 44.0554 54.6764C44.8692 54.6764 45.6497 54.9976 46.2252 55.5692C46.8007 56.1409 47.124 56.9163 47.124 57.7247C47.124 58.5332 46.8007 59.3086 46.2252 59.8803C45.6497 60.4519 44.8692 60.7731 44.0554 60.7731C39.9749 60.7685 36.0629 59.1561 33.1776 56.2898C30.2922 53.4234 28.6692 49.5371 28.6646 45.4835V17.504C28.6686 13.45 30.2914 9.56316 33.1768 6.69632C36.0622 3.82949 39.9746 2.21685 44.0554 2.21223H45.1119C49.1912 2.21915 53.1013 3.83281 55.9848 6.6994C58.8684 9.56598 60.4899 13.4515 60.494 17.504Z" fill="url(#paint2_linear)"/>
<g style="mix-blend-mode:multiply" opacity="0.35">
<path d="M47.124 57.7247C47.124 58.5332 46.8007 59.3086 46.2252 59.8802C45.6497 60.4519 44.8692 60.7731 44.0554 60.7731C39.9749 60.7685 36.0629 59.1561 33.1776 56.2898C30.2922 53.4234 28.6692 49.5371 28.6646 45.4835V30.2831H34.8016V45.4835C34.8045 47.9207 35.7804 50.2573 37.5152 51.9807C39.25 53.704 41.602 54.6735 44.0554 54.6764C44.8692 54.6764 45.6497 54.9976 46.2252 55.5692C46.8007 56.1409 47.124 56.9163 47.124 57.7247Z" fill="#7680DD"/>
</g>
<path d="M60.2286 33.1899H28.9997C24.93 33.1899 21.6309 36.4674 21.6309 40.5103V65.9531C21.6309 69.996 24.93 73.2735 28.9997 73.2735H60.2286C64.2983 73.2735 67.5975 69.996 67.5975 65.9531V40.5103C67.5975 36.4674 64.2983 33.1899 60.2286 33.1899Z" fill="url(#paint3_linear)"/>
<path d="M46.9486 55.0596L47.5316 57.7139C47.5727 57.897 47.5718 58.0871 47.529 58.2698C47.4862 58.4526 47.4025 58.6235 47.2842 58.7699C47.166 58.9162 47.0161 59.0343 46.8457 59.1153C46.6753 59.1963 46.4888 59.2383 46.2999 59.238H42.8872C42.6983 59.2383 42.5117 59.1963 42.3413 59.1153C42.171 59.0343 42.0211 58.9162 41.9028 58.7699C41.7845 58.6235 41.7009 58.4526 41.6581 58.2698C41.6153 58.0871 41.6143 57.897 41.6554 57.7139L42.2428 55.0357C41.4741 54.5287 40.8905 53.7888 40.5789 52.926C40.2672 52.0633 40.2441 51.1236 40.5129 50.2467C40.7817 49.3699 41.3281 48.6025 42.0709 48.0588C42.8137 47.515 43.7133 47.2238 44.636 47.2285C45.5587 47.2332 46.4553 47.5335 47.1925 48.0848C47.9297 48.6361 48.4681 49.409 48.7279 50.2886C48.9876 51.1681 48.9548 52.1075 48.6342 52.967C48.3137 53.8266 47.7225 54.5605 46.9486 55.0596Z" fill="white"/>
<defs>
<linearGradient id="paint0_linear" x1="50.5845" y1="2.72173" x2="40.1999" y2="90.0273" gradientUnits="userSpaceOnUse">
<stop stop-color="#e73c2b"/>
<stop offset="0.49" stop-color="#e73c2b"/>
<stop offset="0.83" stop-color="#e73c2b"/>
<stop offset="1" stop-color="#e73c2b"/>
</linearGradient>
<linearGradient id="paint1_linear" x1="-6" y1="64" x2="108.5" y2="40" gradientUnits="userSpaceOnUse">
<stop stop-color="#26E6FF"/>
<stop offset="1" stop-color="#4189FF"/>
</linearGradient>
<linearGradient id="paint2_linear" x1="39" y1="-9" x2="41.5" y2="48.5" gradientUnits="userSpaceOnUse">
<stop stop-color="#FF3AE0"/>
<stop offset="0.505208" stop-color="#A857B6" stop-opacity="0"/>
</linearGradient>
<linearGradient id="paint3_linear" x1="44.6142" y1="25.4536" x2="44.6142" y2="71.5969" gradientUnits="userSpaceOnUse">
<stop stop-color="#FBD15B"/>
<stop offset="1" stop-color="#FE9373"/>
</linearGradient>
</defs>
</svg>
