<svg width="400" height="311" viewBox="0 0 217 128" fill="none" xmlns="http://www.w3.org/2000/svg">
<path d="M211.476 73.9162C155.516 110.973 185.828 128 140.36 128C92.6321 128 130.451 59.8944 52.3396 99.4557C-25.7713 139.017 -15.2789 36.1381 18.5304 11.3191C52.3397 -13.5 91.3952 24.8407 147.938 5.81171C230.515 -21.9786 235.411 58.0662 211.476 73.9162Z" fill="url(#paint0_linear)"/>
<g clip-path="url(#clip0)">
<path d="M181.554 119.529C188.743 119.046 197.951 117.084 202.082 109.993C203.065 108.307 204.164 104.972 202.075 103.537C200.165 102.226 197.506 103.277 195.922 104.693C194.758 105.734 193.738 108.17 192.463 108.872C190.595 109.9 189.849 106.679 189.976 105.38C190.261 102.477 193.643 101.521 195.88 101.046C199.593 100.258 203.894 99.6602 203.972 95.1963C204.049 90.7323 200.232 87.7767 197.021 89.5028C194.375 90.9259 194.497 94.3743 192.623 96.3058C190.958 98.0207 190.626 95.0206 190.828 93.5758C191.268 90.438 193.982 88.3396 196.009 86.3607C198.301 84.1232 200.982 79.4836 198.931 76.1626C197.751 74.2513 194.466 73.5886 192.485 73.7552C182.791 74.5717 188.225 88.4844 186.378 89.8614C184.531 91.2384 183.062 88.492 183.341 84.4957C183.62 80.4995 183.259 77.5112 179.324 78.5156C175.389 79.5199 173.94 89.9072 178.056 94.2327C182.173 98.5582 177.204 102.603 176.222 99.6426C175.514 97.5055 175.139 92.0153 172.719 91.2435C168.688 89.9587 168.125 99.0393 169.16 101.236C170.61 104.316 174.304 105.226 176.218 107.93C176.774 108.715 178.018 110.651 177.413 111.699C176.567 113.159 174.608 111.392 173.895 110.635C172.294 108.937 170.295 103.41 167.639 106.797C164.362 110.977 168.889 117.844 181.554 119.529Z" fill="url(#paint1_linear)"/>
<g style="mix-blend-mode:soft-light" opacity="0.8">
<g style="mix-blend-mode:soft-light" opacity="0.8">
<path d="M182.626 120.052C182.458 120.04 182.336 119.822 182.346 119.64C182.354 119.482 183.245 103.61 190.914 85.242C190.947 85.1595 191.008 85.094 191.084 85.0593C191.161 85.0246 191.246 85.0235 191.323 85.0563C191.36 85.0731 191.393 85.0977 191.421 85.1288C191.448 85.1598 191.47 85.1966 191.484 85.237C191.499 85.2773 191.505 85.3205 191.504 85.3638C191.503 85.4072 191.494 85.4499 191.477 85.4895C183.856 103.744 182.971 119.519 182.96 119.675C182.95 119.859 182.801 120.064 182.631 120.052L182.626 120.052Z" fill="white"/>
</g>
</g>
<path d="M189.75 120.977C189.622 119.337 186.792 118.669 185.657 118.351C184.998 118.166 184.054 117.957 183.763 117.183C183.456 116.371 184.047 115.802 184.76 115.713C186.037 115.553 187.333 116.517 188.476 116.996C189.705 117.51 190.996 117.803 192.283 117.306C193.309 116.91 194.404 115.874 194.7 114.721C195.521 111.532 192.523 111.505 190.546 111.82C189.587 111.973 187.719 112.007 187.652 110.548C187.582 108.997 189.44 108.35 190.559 108.383C192.021 108.427 193.432 108.877 194.871 109.094C196.169 109.29 197.724 109.246 198.197 107.645C198.563 106.408 198.009 104.916 197.119 104.103C195.058 102.223 191.984 104.958 189.659 104.786C188.836 104.727 187.524 103.974 187.362 102.998C187.198 102.006 188.412 101.433 189.077 101.122C191.048 100.204 199.864 99.4765 197.019 95.1692C196.303 94.0854 194.843 93.1127 193.619 92.9885C191.31 92.7548 188.593 94.2717 186.709 95.6131C183.745 97.7237 181.075 100.728 179.248 104.021C175.21 111.3 176.568 116.471 176.568 116.471C177.464 118.368 178.912 120.379 180.582 121.531C182.543 122.886 185.674 123.643 187.962 122.862C188.7 122.611 189.828 121.992 189.75 120.977Z" fill="url(#paint2_linear)"/>
<path d="M146.982 12.5189L130.214 114.376C129.964 115.893 130.859 117.297 132.206 117.497L178.615 124.93C181.454 125.235 183.104 123.712 183.371 122.107L201.359 14.3081C201.629 12.6888 200.308 11.1464 197.428 11.0069L149.945 9.81206C148.567 9.77091 147.234 10.9893 146.982 12.5189Z" fill="url(#paint3_linear)"/>
<path d="M144.868 12.2392L128.023 114.622C127.772 116.147 128.672 117.558 130.022 117.76L178.172 124.927C179.676 125.151 181.129 124.014 181.398 122.401L199.474 14.0292C199.745 12.4031 198.704 11.0313 197.164 10.9858L147.843 9.51932C146.458 9.47726 145.124 10.702 144.868 12.2392Z" fill="#26264F"/>
<path d="M145.489 17.9974L129.87 112.891C129.635 114.315 130.476 115.632 131.741 115.817L177.036 122.451C178.435 122.655 179.786 121.595 180.037 120.092L196.725 19.9933C196.978 18.4785 196.012 17.1964 194.582 17.1447L148.269 15.4716C146.975 15.4247 145.726 16.5615 145.489 17.9974Z" fill="#D8DEE8"/>
<path d="M170.424 13.3961C170.333 13.9438 170.669 14.4016 171.174 14.4188C171.68 14.436 172.164 14.0055 172.255 13.4555C172.346 12.9056 172.009 12.4486 171.503 12.4322C170.997 12.4158 170.514 12.8482 170.424 13.3961Z" fill="white"/>
<g style="mix-blend-mode:soft-light" opacity="0.3">
<g style="mix-blend-mode:soft-light" opacity="0.3">
<path d="M171.382 64.0149C177.253 49.2305 169.411 41.0251 175.136 27.3492C178.25 19.9093 183.814 14.5944 189.792 10.7646L197.164 10.9858C198.704 11.0318 199.745 12.4014 199.474 14.0292L181.398 122.401C181.129 124.014 179.676 125.151 178.172 124.927L136.602 118.739C137.531 107.356 140.821 99.4388 144.25 93.8874C153.676 78.6338 165.302 79.3242 171.382 64.0149Z" fill="#F4F7FA"/>
</g>
</g>
<path d="M146.381 25.8192L123.42 43.3588C141.394 53.5569 137.325 80.5926 155.298 90.7902L178.259 73.2502C160.286 63.053 164.355 36.0168 146.381 25.8192Z" fill="url(#paint4_linear)"/>
<path d="M127.088 43.289C142.202 53.8499 139.934 77.6878 155.048 88.2487L174.59 73.3204C159.477 62.7595 161.745 38.9216 146.632 28.3608L127.088 43.289Z" fill="white"/>
<path d="M171.514 70.3025C171.428 70.3684 171.352 70.431 171.274 70.5021L171.253 70.5202C170.354 71.32 169.884 72.3785 169.91 73.4242C169.93 74.3377 170.332 75.2383 171.164 75.9399C171.29 76.0447 171.421 76.1422 171.556 76.2319C172.083 76.5844 172.698 76.8375 173.356 76.9979L178.259 73.2515C176.436 72.2206 174.744 70.95 173.222 69.4693C172.649 69.6036 172.03 69.9088 171.514 70.3025Z" fill="url(#paint5_linear)"/>
<path d="M151.518 85.5792C150.981 85.9896 150.609 86.4558 150.285 87.031C151.802 88.5018 153.486 89.7648 155.3 90.7908L160.317 86.9577C159.935 86.5128 159.497 86.1272 159.014 85.8117C158.875 85.7184 158.731 85.63 158.585 85.5457C156.417 84.2933 153.665 84.1009 151.727 85.4263L151.704 85.442C151.642 85.4848 151.576 85.5335 151.518 85.5792Z" fill="url(#paint6_linear)"/>
<path d="M146.381 25.8193L141.479 29.5652C141.861 30.01 142.299 30.3957 142.782 30.7112C142.922 30.804 143.064 30.8928 143.209 30.977C145.353 32.216 148.064 32.4228 150 31.1437C150.09 31.0847 150.164 31.0327 150.25 30.9669C150.766 30.5736 151.196 30.0772 151.42 29.6033C149.898 28.1222 148.205 26.8509 146.381 25.8193Z" fill="url(#paint7_linear)"/>
<path d="M128.438 39.5257L123.42 43.3588C125.234 44.3848 126.918 45.6478 128.434 47.1186C129.136 46.9101 129.713 46.6523 130.25 46.2414C130.31 46.1958 130.374 46.1453 130.431 46.0961L130.452 46.0785C131.326 45.334 131.817 44.3485 131.871 43.3548C131.925 42.3611 131.531 41.3538 130.624 40.5889C130.499 40.4833 130.369 40.3849 130.235 40.2941C129.709 39.942 129.097 39.6862 128.438 39.5257Z" fill="url(#paint8_linear)"/>
<path d="M147.627 50.1007C143.962 52.9004 142.526 58.7694 144.202 63.3751C145.878 67.9807 150.411 69.2901 154.109 66.4655C157.774 63.6654 159.21 57.7968 157.534 53.1907C155.858 48.5847 151.325 47.2757 147.627 50.1007Z" fill="url(#paint9_linear)"/>
<path d="M147.983 56.0075C147.33 56.5063 146.911 57.1744 146.728 58.0305C146.672 58.2973 146.64 58.5692 146.633 58.8421C146.613 59.4822 146.72 60.1764 146.951 60.9108L146.323 61.3911C146.241 61.4548 146.181 61.5455 146.152 61.6489C146.123 61.7524 146.128 61.8627 146.164 61.9627L146.167 61.9693C146.243 62.1739 146.445 62.2083 146.612 62.0802L147.233 61.6068L147.302 61.777C147.487 62.2195 147.699 62.6488 147.935 63.0622C148.097 63.3426 148.275 63.6125 148.467 63.8704C148.493 63.9065 148.525 63.9363 148.563 63.9579C148.6 63.9795 148.641 63.9924 148.684 63.9958C148.727 63.9992 148.769 63.9929 148.81 63.9775C148.85 63.9621 148.887 63.9379 148.918 63.9064L149.797 63.1021C149.987 62.9288 150.008 62.5943 149.845 62.4171C149.654 62.2098 149.476 61.9891 149.312 61.7564C149.051 61.3837 148.825 60.985 148.636 60.5657L150.448 59.1739C151.033 60.0412 151.621 60.5731 152.213 60.7695C152.805 60.9659 153.414 60.8259 154.041 60.3495C154.686 59.8567 155.08 59.2033 155.222 58.3892C155.362 57.5813 155.242 56.6685 154.872 55.6762L155.453 55.2317C155.536 55.1698 155.595 55.0792 155.621 54.9758C155.647 54.8724 155.638 54.763 155.595 54.6667C155.504 54.4741 155.3 54.4382 155.133 54.5651L154.563 55.0014C154.375 54.6158 154.162 54.2441 153.927 53.8887C153.757 53.6309 153.57 53.3671 153.378 53.1303C153.263 52.9881 153.073 52.979 152.932 53.1107L152.251 53.744C152.071 53.9119 152.048 54.2303 152.21 54.3905C152.357 54.5362 152.493 54.6928 152.619 54.8591C152.854 55.1727 153.055 55.5132 153.219 55.8743C153.237 55.9132 153.255 55.9521 153.272 55.9906L151.642 57.2358C150.978 56.2849 150.381 55.8019 149.784 55.6076C149.187 55.4134 148.586 55.5458 147.983 56.0075ZM148.366 59.8281C148.233 59.4724 148.202 59.1637 148.265 58.8785C148.329 58.5903 148.492 58.3371 148.722 58.1689C148.941 58.0016 149.158 57.9514 149.366 58.0114C149.575 58.0715 149.806 58.2751 150.031 58.5581L148.366 59.8281ZM152.054 57.8309L153.551 56.6877C153.638 56.9856 153.673 57.317 153.618 57.5859C153.57 57.843 153.432 58.0718 153.231 58.2247C153.037 58.3727 152.844 58.4149 152.652 58.3512C152.46 58.2875 152.267 58.1259 152.056 57.8311L152.054 57.8309Z" fill="white"/>
<path style="mix-blend-mode:multiply" opacity="0.2" d="M123.495 43.3018L123.42 43.3589C141.394 53.5569 137.325 80.5926 155.298 90.7902C162.79 85.0671 170.282 79.3442 177.774 73.6214C176.677 73.4167 175.568 73.2843 174.455 73.2248C172.938 73.1462 171.417 73.2125 169.909 73.4227C168.067 73.6772 166.038 74.1641 163.769 74.9991C152.557 79.1433 149.723 74.7942 148.328 67.6861C147.94 65.8008 147.636 63.7339 147.24 61.6263C147.065 60.6997 146.863 59.7638 146.63 58.8319C146.172 57.0084 145.595 55.2002 144.863 53.5073C142.488 47.728 137.893 43.6071 131.871 43.3548C130.743 43.2948 129.612 43.3547 128.493 43.5338C128.183 43.5818 127.871 43.6121 127.558 43.6245C126.378 43.6773 125.022 43.5295 123.495 43.3018Z" fill="url(#paint10_linear)"/>
<path d="M141.341 48.6382C140.677 48.8649 140.292 49.5682 140.486 50.2018L152.687 90.3233C152.897 91.0055 153.759 91.5461 154.445 91.2985L179.537 82.2399C180.209 81.9973 180.549 81.012 180.327 80.3431L167.954 40.8274C167.749 40.2069 167.049 39.8799 166.399 40.1019L141.341 48.6382Z" fill="url(#paint11_linear)"/>
<path d="M140.998 47.8365C140.331 48.0647 139.941 48.7738 140.137 49.4127L152.581 90.0508C152.791 90.7379 153.529 91.0961 154.22 90.8471L179.468 81.7371C180.144 81.4935 180.515 80.7429 180.29 80.0695L167.795 39.9836C167.587 39.3569 166.882 39.027 166.228 39.2504L140.998 47.8365Z" fill="url(#paint12_linear)"/>
<g opacity="0.7">
<path opacity="0.7" d="M157.483 76.1995L159.611 82.8022C159.66 82.9464 159.757 83.0658 159.884 83.1379C160.011 83.2101 160.159 83.2298 160.3 83.1934L161.859 82.7571C161.925 82.7393 161.987 82.7068 162.041 82.6619C162.095 82.617 162.139 82.5606 162.172 82.4965C162.204 82.4323 162.223 82.3617 162.229 82.2894C162.234 82.217 162.224 82.1444 162.201 82.0763L160.055 75.4753C160.005 75.333 159.908 75.2153 159.782 75.1446C159.656 75.074 159.51 75.0552 159.37 75.0918L157.825 75.5269C157.759 75.544 157.697 75.5757 157.644 75.6199C157.59 75.664 157.545 75.7197 157.513 75.7831C157.481 75.8466 157.461 75.9165 157.456 75.9883C157.451 76.06 157.46 76.132 157.483 76.1995Z" fill="#F4F7FA"/>
<path opacity="0.7" d="M154.683 67.5109L156.772 73.9928C156.82 74.1346 156.917 74.252 157.043 74.3224C157.168 74.3929 157.314 74.4115 157.453 74.3747L158.996 73.9412C159.061 73.9241 159.123 73.8926 159.176 73.8487C159.23 73.8048 159.274 73.7495 159.306 73.6864C159.338 73.6233 159.358 73.5539 159.363 73.4826C159.368 73.4112 159.359 73.3397 159.337 73.2725L157.23 66.7902C157.181 66.6501 157.085 66.5344 156.96 66.4653C156.836 66.3963 156.691 66.3785 156.554 66.4156L155.024 66.8486C154.959 66.8654 154.898 66.8964 154.844 66.9398C154.791 66.9832 154.747 67.0378 154.715 67.1003C154.683 67.1627 154.663 67.2316 154.658 67.3023C154.652 67.3731 154.661 67.4441 154.683 67.5109Z" fill="#F4F7FA"/>
<path opacity="0.7" d="M151.934 58.9797L153.985 65.3442C154.034 65.4839 154.129 65.5992 154.254 65.6681C154.378 65.7369 154.522 65.7545 154.659 65.7174L156.187 65.2846C156.251 65.2679 156.312 65.237 156.365 65.1938C156.418 65.1506 156.462 65.096 156.494 65.0337C156.526 64.9714 156.546 64.9028 156.551 64.8322C156.557 64.7617 156.548 64.6909 156.526 64.6243L154.457 58.2621C154.407 58.1244 154.312 58.0111 154.189 57.9438C154.066 57.8764 153.923 57.8596 153.788 57.8966L152.273 58.3281C152.208 58.3444 152.148 58.3747 152.096 58.4173C152.043 58.4598 151.999 58.5135 151.967 58.575C151.936 58.6364 151.916 58.7042 151.91 58.7739C151.904 58.8437 151.913 58.9138 151.934 58.9797Z" fill="#F4F7FA"/>
<path opacity="0.7" d="M149.233 50.6025L151.248 56.8527C151.296 56.9905 151.391 57.1039 151.514 57.1711C151.637 57.2383 151.78 57.2545 151.914 57.2167L153.428 56.7855C153.492 56.7694 153.552 56.7391 153.605 56.6967C153.657 56.6543 153.701 56.6006 153.732 56.5393C153.764 56.478 153.784 56.4104 153.789 56.3408C153.795 56.2712 153.787 56.2013 153.765 56.1356L151.733 49.8889C151.644 49.6138 151.347 49.4531 151.072 49.5317L149.571 49.9616C149.508 49.9774 149.448 50.0071 149.396 50.0488C149.344 50.0904 149.301 50.1432 149.269 50.2036C149.237 50.2639 149.218 50.3306 149.212 50.3994C149.205 50.4681 149.213 50.5373 149.233 50.6025Z" fill="#F4F7FA"/>
</g>
<path d="M164.733 77.1469L165.735 80.2779C165.917 80.8474 166.537 81.1454 167.113 80.9373L170.244 79.8146C170.817 79.6093 171.135 78.9761 170.95 78.4086L169.936 75.2897C169.753 74.7257 169.136 74.431 168.565 74.6343L165.446 75.7453C164.872 75.951 164.551 76.5818 164.733 77.1469Z" fill="url(#paint13_linear)"/>
<path d="M165.761 75.9674L168.44 75.0126C168.969 74.8245 169.536 75.0959 169.706 75.6178L170.577 78.2976C170.747 78.823 170.455 79.4051 169.925 79.5939L167.236 80.5576C166.705 80.7481 166.135 80.4743 165.965 79.949L165.104 77.2604C164.936 76.7361 165.231 76.1562 165.761 75.9674ZM169.573 75.6656C169.427 75.2155 168.938 74.9821 168.483 75.1442L165.803 76.0994C165.347 76.2618 165.093 76.7609 165.237 77.2121L166.099 79.9008C166.244 80.3543 166.735 80.59 167.193 80.426L169.881 79.4627C170.338 79.2991 170.589 78.7976 170.442 78.3453L169.573 75.6656Z" fill="url(#paint14_linear)"/>
<path d="M169.571 79.6483L168.13 75.1964L169.571 79.6483Z" fill="#F4F7FA"/>
<path d="M168.063 75.2204L169.504 79.6722L169.638 79.624L168.196 75.173L168.063 75.2204Z" fill="url(#paint15_linear)"/>
<path d="M168.56 80.0105L167.122 75.5553L168.56 80.0105Z" fill="#F4F7FA"/>
<path d="M167.056 75.5792L168.494 80.0344L168.627 79.9866L167.189 75.5318L167.056 75.5792Z" fill="url(#paint16_linear)"/>
<path d="M167.549 80.373L166.115 75.9147L167.549 80.373Z" fill="#F4F7FA"/>
<path d="M166.048 75.9385L167.482 80.3969L167.616 80.3491L166.181 75.8911L166.048 75.9385Z" fill="url(#paint17_linear)"/>
<path d="M165.886 77.7827L166.287 79.029C166.387 79.3456 166.734 79.5115 167.054 79.3971L169.4 78.5571C169.719 78.4426 169.896 78.0905 169.794 77.7746L169.393 76.5317C169.293 76.2164 168.946 76.0519 168.628 76.1655L166.285 77.0015C165.963 77.1135 165.784 77.4669 165.886 77.7827Z" fill="#FEC045"/>
<path d="M166.261 76.9353L168.603 76.0994C168.959 75.9724 169.342 76.1555 169.456 76.5055L169.86 77.7486C169.974 78.1029 169.777 78.4931 169.42 78.6209L167.074 79.4609C166.716 79.589 166.333 79.405 166.219 79.0507L165.818 77.8044C165.706 77.4532 165.904 77.0627 166.261 76.9353ZM169.323 76.555C169.232 76.2755 168.929 76.1304 168.646 76.2314L166.304 77.0673C166.02 77.1683 165.863 77.4785 165.953 77.7588L166.354 79.0052C166.444 79.2864 166.748 79.4324 167.032 79.3306L169.378 78.4911C169.661 78.3897 169.818 78.079 169.727 77.7986L169.323 76.555Z" fill="url(#paint18_linear)"/>
<path style="mix-blend-mode:multiply" opacity="0.15" d="M154.897 74.3169C155.544 77.8131 156.183 79.9593 157.727 82.0827C159.846 84.9985 162.639 86.4562 164.399 87.1744L154.219 90.8471C153.529 91.0961 152.791 90.7379 152.581 90.0509L140.137 49.4149C139.941 48.776 140.329 48.0668 140.998 47.8388L145.038 46.4602C150.718 51.2174 152.666 55.8005 153.374 59.1832C154.23 63.2686 153.361 66.0135 154.897 74.3169Z" fill="url(#paint19_linear)"/>
<g style="mix-blend-mode:multiply" opacity="0.42">
<path style="mix-blend-mode:multiply" opacity="0.42" d="M152.005 75.9244L154.821 85.0231C154.874 85.1961 155.061 85.2867 155.236 85.2253L156.676 84.7089C156.758 84.6822 156.827 84.6221 156.869 84.5418C156.91 84.4615 156.919 84.3674 156.896 84.2801L154.066 75.1952C154.013 75.0248 153.828 74.936 153.655 74.9975L152.224 75.5016C152.051 75.564 151.952 75.7536 152.005 75.9244Z" fill="url(#paint20_linear)"/>
<path style="mix-blend-mode:multiply" opacity="0.42" d="M146.555 58.4682L150.302 70.5718C150.356 70.7444 150.542 70.835 150.717 70.774L152.157 70.2688C152.331 70.2074 152.431 70.0161 152.377 69.8439L148.612 57.7582C148.559 57.5896 148.375 57.5004 148.202 57.5602L146.775 58.0542C146.604 58.1123 146.503 58.2992 146.555 58.4682Z" fill="url(#paint21_linear)"/>
</g>
<path style="mix-blend-mode:multiply" opacity="0.26" d="M161.744 45.2532C160.009 45.8481 159.088 47.8664 159.684 49.7442C160.274 51.6038 162.131 52.6193 163.834 52.0299C165.538 51.4406 166.464 49.4655 165.905 47.6007C165.341 45.7178 163.477 44.6589 161.744 45.2532Z" fill="url(#paint22_linear)"/>
<g opacity="0.53">
<path opacity="0.53" d="M166.098 73.2956C166.036 73.4306 166.026 73.5858 166.071 73.7275C166.115 73.8693 166.21 73.9864 166.336 74.0534C166.398 74.0872 166.465 74.1075 166.535 74.1131C166.604 74.1186 166.674 74.1093 166.741 74.0857C166.807 74.0622 166.869 74.0248 166.921 73.9757C166.974 73.9267 167.017 73.867 167.048 73.8003C167.109 73.6646 167.118 73.5094 167.072 73.3681C167.027 73.2267 166.93 73.1105 166.804 73.0446C166.743 73.0117 166.676 72.9922 166.607 72.987C166.538 72.9818 166.469 72.9912 166.403 73.0145C166.338 73.0378 166.277 73.0747 166.225 73.1229C166.172 73.1711 166.129 73.2298 166.098 73.2956Z" fill="#F4F7FA"/>
<path opacity="0.53" d="M163.595 72.3206C163.603 72.3467 163.615 72.3708 163.632 72.3916C163.648 72.4124 163.669 72.4294 163.692 72.4416C163.739 72.4663 163.793 72.4702 163.843 72.4525C163.893 72.4347 163.935 72.3968 163.959 72.347C164.713 70.8131 166.487 70.1862 167.964 70.9313C168.011 70.9559 168.065 70.9598 168.115 70.9422C168.165 70.9245 168.206 70.8867 168.23 70.837C168.241 70.8121 168.248 70.7852 168.249 70.7578C168.25 70.7304 168.246 70.7031 168.237 70.6775C168.228 70.6518 168.215 70.6284 168.197 70.6085C168.179 70.5885 168.158 70.5725 168.135 70.5614C166.467 69.7268 164.466 70.4342 163.61 72.161C163.598 72.1854 163.59 72.212 163.588 72.2394C163.585 72.2668 163.588 72.2944 163.595 72.3206Z" fill="#F4F7FA"/>
<path opacity="0.53" d="M164.297 72.6962C164.304 72.7225 164.317 72.7468 164.334 72.7678C164.35 72.7887 164.371 72.8059 164.394 72.8182C164.441 72.8432 164.496 72.8473 164.547 72.8295C164.597 72.8117 164.639 72.7734 164.663 72.7231C165.215 71.5834 166.528 71.1195 167.618 71.6773C167.665 71.7024 167.72 71.7065 167.77 71.6887C167.821 71.671 167.863 71.6329 167.887 71.5827C167.898 71.5576 167.904 71.5304 167.905 71.5027C167.907 71.475 167.903 71.4474 167.894 71.4215C167.885 71.3955 167.871 71.3717 167.854 71.3514C167.836 71.3311 167.815 71.3148 167.792 71.3033C166.508 70.6505 164.963 71.1964 164.31 72.5343C164.298 72.5591 164.29 72.5862 164.288 72.614C164.286 72.6417 164.289 72.6697 164.297 72.6962Z" fill="#F4F7FA"/>
<path opacity="0.53" d="M165.006 73.0757C165.019 73.1158 165.042 73.151 165.073 73.1769C165.105 73.2027 165.143 73.2179 165.182 73.2207C165.222 73.2235 165.262 73.2137 165.296 73.1925C165.331 73.1713 165.359 73.1397 165.377 73.1017C165.547 72.748 165.842 72.4792 166.197 72.3537C166.551 72.2282 166.937 72.2562 167.27 72.4317C167.293 72.447 167.319 72.4568 167.347 72.4607C167.374 72.4645 167.402 72.4622 167.428 72.4539C167.455 72.4457 167.48 72.4316 167.501 72.4126C167.522 72.3937 167.539 72.3702 167.552 72.3438C167.564 72.3174 167.571 72.2886 167.572 72.2593C167.573 72.2299 167.569 72.2007 167.559 72.1734C167.549 72.1462 167.533 72.1215 167.514 72.101C167.494 72.0805 167.471 72.0646 167.445 72.0544C167.016 71.8308 166.521 71.7961 166.065 71.9577C165.841 72.0366 165.633 72.1617 165.454 72.3257C165.275 72.4898 165.128 72.6895 165.021 72.9136C164.996 72.9637 164.991 73.0219 165.006 73.0757Z" fill="#F4F7FA"/>
</g>
<path d="M158.891 68.9959C158.396 76.0651 163.203 81.9902 169.861 82.2385C176.789 82.4971 183.048 76.5547 183.58 68.9564C184.112 61.3582 178.685 55.4338 171.719 55.7151C165.025 55.9851 159.387 61.9272 158.891 68.9959Z" fill="url(#paint23_linear)"/>
<path d="M157.139 68.261C156.644 75.3298 161.451 81.2549 168.109 81.5032C175.037 81.7618 181.295 75.8193 181.828 68.2211C182.36 60.6228 176.933 54.6985 169.967 54.9797C163.274 55.2497 157.635 61.1918 157.139 68.261Z" fill="url(#paint24_linear)"/>
<path d="M157.663 68.2601C157.19 75.0178 161.791 80.6713 168.151 80.9005C174.758 81.1353 180.717 75.4632 181.224 68.2225C181.732 60.9818 176.566 55.3278 169.925 55.5846C163.531 55.8306 158.137 61.5023 157.663 68.2601Z" fill="url(#paint25_linear)"/>
<path d="M158.038 68.2596C157.58 74.7941 162.033 80.2571 168.181 80.468C174.559 80.6863 180.305 75.2071 180.794 68.2223C181.284 61.2375 176.305 55.7758 169.894 56.015C163.715 56.2461 158.496 61.7246 158.038 68.2596Z" fill="url(#paint26_linear)"/>
<path style="mix-blend-mode:multiply" opacity="0.3" d="M170.851 70.7652C170.753 66.8546 167.512 64.975 168.201 61.433C168.625 59.2496 170.324 57.5036 172.176 56.177C177.445 57.1414 181.223 62.1056 180.794 68.2223C180.305 75.207 174.559 80.6866 168.181 80.4679C167.575 80.4467 166.973 80.3729 166.38 80.2473C169.094 77.7499 170.935 74.1249 170.851 70.7652Z" fill="url(#paint27_linear)"/>
<path d="M167.2 41.2616C166.866 46.0225 170.104 50.0132 174.588 50.1806C179.254 50.3548 183.469 46.3524 183.828 41.2343C184.186 36.1163 180.531 32.1283 175.84 32.3165C171.33 32.4984 167.534 36.5002 167.2 41.2616Z" fill="url(#paint28_linear)"/>
<path d="M166.019 40.7663C165.685 45.5272 168.923 49.5179 173.407 49.6853C178.075 49.8596 182.288 45.8571 182.647 40.739C183.005 35.621 179.35 31.633 174.658 31.8212C170.15 32.0032 166.353 36.0053 166.019 40.7663Z" fill="url(#paint29_linear)"/>
<path d="M166.372 40.7659C166.053 45.317 169.151 49.1261 173.435 49.2782C177.885 49.4367 181.899 45.6164 182.24 40.7396C182.582 35.8628 179.103 32.0573 174.63 32.2279C170.324 32.3946 166.691 36.2143 166.372 40.7659Z" fill="url(#paint30_linear)"/>
<path d="M166.624 40.7654C166.316 45.1666 169.314 48.8457 173.456 48.9878C177.752 49.1352 181.621 45.4446 181.951 40.7401C182.281 36.0356 178.927 32.3571 174.61 32.5195C170.447 32.6738 166.932 36.3637 166.624 40.7654Z" fill="url(#paint31_linear)"/>
<path style="mix-blend-mode:multiply" opacity="0.3" d="M175.254 42.4528C175.188 39.8194 173.003 38.5533 173.469 36.1676C173.755 34.697 174.899 33.5208 176.146 32.6276C179.695 33.2772 182.239 36.6206 181.951 40.7405C181.621 45.445 177.751 49.1356 173.455 48.9882C173.048 48.974 172.642 48.9243 172.242 48.8396C174.073 47.1573 175.31 44.7158 175.254 42.4528Z" fill="url(#paint32_linear)"/>
<path d="M138.901 75.1062L133.911 108.052C133.782 108.902 133.969 109.722 134.443 110.333C134.854 110.877 135.442 111.238 136.093 111.343L175.147 117.618C176.801 117.883 178.316 116.724 178.552 115.042L183.493 79.9649C183.726 78.314 182.59 76.7846 180.938 76.61L141.976 72.5223C140.496 72.3693 139.135 73.5545 138.901 75.1062Z" fill="url(#paint33_linear)"/>
<path style="mix-blend-mode:multiply" opacity="0.2" d="M134.398 110.33C134.816 110.875 135.41 111.236 136.066 111.341L175.133 117.617C176.788 117.883 178.316 116.724 178.552 115.044L183.493 79.9671C183.725 78.3162 182.589 76.7868 180.938 76.6121L180.484 76.5648C180.255 77.4631 179.963 78.4691 179.683 79.4343C179.644 79.5689 179.604 79.7137 179.565 79.8422C179.243 80.9569 178.966 81.8726 178.92 81.9897C177.421 85.807 175.375 90.1709 171.561 92.0964C165.734 95.0412 158.694 93.9457 152.683 95.3628C148.725 96.2946 144.635 97.6423 141.362 100.148C138.971 101.979 136.899 104.299 135.584 107.09C135.102 108.132 134.705 109.216 134.398 110.33Z" fill="url(#paint34_linear)"/>
<g opacity="0.7">
<path opacity="0.7" d="M138.551 109.87C138.409 109.809 138.346 109.614 138.405 109.463C138.42 109.428 138.441 109.396 138.468 109.37C138.494 109.343 138.525 109.322 138.559 109.308C138.593 109.295 138.629 109.288 138.665 109.289C138.701 109.291 138.736 109.3 138.769 109.316C138.98 109.407 139.199 109.519 139.43 109.535L140.775 109.725C140.928 109.749 141.033 109.878 141.008 110.041C140.997 110.12 140.957 110.193 140.896 110.242C140.836 110.291 140.76 110.314 140.685 110.305L139.338 110.122C139.062 110.103 138.803 109.98 138.551 109.87ZM142.562 110.27C142.574 110.192 142.615 110.122 142.675 110.075C142.736 110.028 142.811 110.008 142.884 110.019L145.002 110.353C145.038 110.359 145.073 110.372 145.105 110.392C145.136 110.412 145.164 110.439 145.185 110.471C145.207 110.502 145.223 110.538 145.231 110.576C145.24 110.614 145.242 110.654 145.236 110.692C145.23 110.731 145.217 110.769 145.198 110.802C145.179 110.836 145.153 110.865 145.123 110.889C145.094 110.912 145.06 110.929 145.024 110.938C144.988 110.948 144.951 110.95 144.914 110.944L142.796 110.609C142.723 110.598 142.657 110.556 142.613 110.492C142.569 110.429 142.55 110.35 142.561 110.271L142.562 110.27ZM146.807 110.94C146.819 110.861 146.86 110.79 146.921 110.743C146.982 110.695 147.058 110.676 147.132 110.688L149.276 111.024C149.315 111.027 149.354 111.038 149.389 111.057C149.424 111.076 149.455 111.102 149.48 111.135C149.505 111.168 149.523 111.205 149.533 111.246C149.543 111.287 149.545 111.329 149.539 111.371C149.533 111.412 149.519 111.452 149.497 111.488C149.476 111.523 149.448 111.554 149.415 111.577C149.382 111.601 149.344 111.617 149.305 111.624C149.266 111.631 149.226 111.63 149.188 111.62L147.044 111.281C146.97 111.269 146.904 111.227 146.859 111.163C146.815 111.1 146.796 111.02 146.807 110.941L146.807 110.94ZM151.103 111.617C151.108 111.577 151.122 111.539 151.142 111.505C151.161 111.471 151.187 111.441 151.218 111.418C151.249 111.394 151.283 111.377 151.32 111.368C151.357 111.359 151.395 111.357 151.432 111.364L153.6 111.705C153.637 111.71 153.673 111.724 153.705 111.744C153.737 111.765 153.765 111.792 153.787 111.824C153.809 111.856 153.825 111.892 153.834 111.931C153.842 111.969 153.844 112.009 153.838 112.049C153.832 112.088 153.819 112.126 153.8 112.16C153.78 112.194 153.755 112.224 153.725 112.248C153.694 112.272 153.66 112.289 153.624 112.299C153.587 112.308 153.549 112.31 153.512 112.305L151.344 111.962C151.269 111.951 151.201 111.908 151.156 111.844C151.111 111.779 151.091 111.698 151.102 111.618L151.103 111.617ZM155.45 112.303C155.457 112.263 155.47 112.225 155.49 112.19C155.51 112.156 155.537 112.126 155.567 112.102C155.598 112.079 155.633 112.062 155.67 112.053C155.707 112.043 155.745 112.042 155.783 112.048L157.978 112.393C158.015 112.399 158.051 112.412 158.083 112.433C158.115 112.453 158.143 112.48 158.165 112.512C158.187 112.545 158.203 112.581 158.212 112.62C158.221 112.658 158.223 112.699 158.217 112.738C158.211 112.778 158.198 112.816 158.179 112.85C158.159 112.884 158.133 112.914 158.103 112.938C158.073 112.962 158.038 112.979 158.002 112.989C157.965 112.999 157.927 113.001 157.89 112.995L155.695 112.648C155.619 112.638 155.551 112.595 155.505 112.53C155.459 112.466 155.439 112.384 155.45 112.303L155.45 112.303ZM159.85 112.996C159.857 112.956 159.871 112.918 159.891 112.883C159.911 112.848 159.938 112.818 159.969 112.795C160 112.771 160.035 112.754 160.073 112.744C160.11 112.735 160.149 112.734 160.186 112.74L162.408 113.09C162.447 113.094 162.485 113.106 162.519 113.126C162.553 113.146 162.583 113.173 162.606 113.206C162.63 113.238 162.648 113.276 162.657 113.316C162.667 113.356 162.669 113.398 162.663 113.439C162.657 113.48 162.643 113.519 162.623 113.555C162.602 113.59 162.575 113.621 162.543 113.645C162.511 113.669 162.475 113.686 162.436 113.695C162.398 113.703 162.359 113.704 162.32 113.696L160.099 113.344C160.022 113.334 159.953 113.291 159.906 113.226C159.86 113.161 159.839 113.079 159.85 112.997L159.85 112.996ZM164.304 113.698C164.311 113.657 164.325 113.619 164.345 113.584C164.366 113.549 164.393 113.519 164.424 113.495C164.456 113.471 164.491 113.454 164.529 113.445C164.567 113.435 164.606 113.434 164.644 113.441L166.893 113.794C166.931 113.799 166.968 113.812 167.002 113.832C167.036 113.852 167.065 113.879 167.089 113.912C167.112 113.945 167.13 113.982 167.139 114.022C167.149 114.062 167.151 114.104 167.145 114.145C167.139 114.186 167.125 114.225 167.105 114.26C167.085 114.296 167.058 114.326 167.026 114.351C166.994 114.375 166.958 114.392 166.92 114.401C166.882 114.411 166.843 114.412 166.805 114.404L164.556 114.049C164.479 114.038 164.409 113.996 164.361 113.93C164.314 113.864 164.293 113.782 164.304 113.699L164.304 113.698ZM168.813 114.409C168.82 114.368 168.834 114.329 168.855 114.294C168.876 114.259 168.903 114.228 168.935 114.204C168.967 114.18 169.003 114.163 169.041 114.154C169.079 114.145 169.118 114.144 169.157 114.151L171.433 114.508C171.512 114.519 171.583 114.562 171.631 114.629C171.679 114.695 171.701 114.779 171.691 114.863C171.684 114.904 171.67 114.943 171.649 114.978C171.628 115.013 171.601 115.044 171.569 115.068C171.537 115.092 171.501 115.109 171.463 115.119C171.425 115.128 171.386 115.129 171.347 115.122L169.07 114.762C168.992 114.752 168.92 114.71 168.872 114.644C168.823 114.578 168.802 114.494 168.812 114.41L168.813 114.409ZM173.379 115.119C173.377 115.077 173.384 115.036 173.397 114.997C173.411 114.958 173.432 114.922 173.459 114.891C173.485 114.861 173.518 114.836 173.554 114.819C173.589 114.802 173.628 114.793 173.667 114.793C174.37 114.759 175.046 114.482 175.59 114.002C175.653 113.948 175.733 113.921 175.814 113.926C175.895 113.932 175.97 113.97 176.025 114.033C176.052 114.062 176.072 114.098 176.085 114.137C176.099 114.175 176.104 114.217 176.102 114.258C176.099 114.299 176.089 114.34 176.071 114.377C176.053 114.414 176.029 114.447 175.999 114.473C175.349 115.045 174.543 115.376 173.703 115.415C173.682 115.416 173.662 115.414 173.641 115.411C173.573 115.401 173.509 115.368 173.461 115.315C173.414 115.262 173.384 115.194 173.378 115.121L173.379 115.119ZM136.881 108.258C136.506 107.549 136.369 106.724 136.493 105.916C136.505 105.839 136.545 105.769 136.604 105.723C136.664 105.676 136.738 105.656 136.811 105.666C136.846 105.672 136.881 105.685 136.912 105.705C136.943 105.724 136.97 105.751 136.991 105.782C137.013 105.813 137.028 105.848 137.036 105.885C137.045 105.923 137.046 105.962 137.04 106C136.935 106.677 137.05 107.37 137.365 107.965C137.39 108.013 137.402 108.068 137.399 108.124C137.397 108.179 137.38 108.233 137.35 108.278C137.32 108.324 137.279 108.36 137.231 108.382C137.183 108.405 137.13 108.412 137.079 108.404C137.037 108.398 136.998 108.382 136.963 108.357C136.929 108.332 136.9 108.299 136.88 108.26L136.881 108.258ZM176.878 112.521C176.839 112.515 176.803 112.501 176.77 112.48C176.737 112.459 176.709 112.43 176.687 112.396C176.665 112.363 176.65 112.325 176.642 112.284C176.635 112.244 176.635 112.203 176.643 112.162C176.65 112.124 176.689 112.092 176.692 112.054L177.004 109.844C177.008 109.804 177.02 109.765 177.038 109.729C177.057 109.694 177.082 109.663 177.112 109.638C177.142 109.614 177.177 109.596 177.214 109.586C177.251 109.576 177.289 109.574 177.327 109.581C177.495 109.606 177.586 109.765 177.562 109.935L177.252 112.149C177.246 112.195 177.234 112.235 177.226 112.28C177.196 112.446 177.038 112.549 176.874 112.524C176.869 112.523 176.881 112.524 176.877 112.523L176.878 112.521ZM136.682 104.804L137.015 102.597C137.039 102.437 137.13 102.321 137.281 102.344C137.432 102.366 137.483 102.511 137.459 102.672L137.125 104.881C137.101 105.042 137.011 105.157 136.86 105.134C136.709 105.112 136.658 104.966 136.682 104.804ZM177.333 107.512L177.662 105.181C177.666 105.14 177.678 105.101 177.696 105.066C177.715 105.031 177.74 105 177.77 104.975C177.8 104.95 177.835 104.932 177.872 104.922C177.909 104.912 177.947 104.91 177.984 104.916C178.153 104.94 178.244 105.097 178.22 105.267L177.891 107.601C177.887 107.641 177.875 107.68 177.857 107.715C177.838 107.751 177.813 107.782 177.782 107.806C177.752 107.831 177.718 107.849 177.681 107.859C177.644 107.869 177.606 107.871 177.568 107.864C177.401 107.839 177.31 107.682 177.333 107.512ZM137.348 100.392L137.68 98.1892C137.704 98.029 137.795 97.9128 137.946 97.9342C138.097 97.9556 138.148 98.0995 138.124 98.2601L137.791 100.466C137.767 100.627 137.677 100.742 137.526 100.72C137.374 100.698 137.322 100.554 137.348 100.392ZM177.993 102.85L178.322 100.523C178.326 100.483 178.338 100.444 178.356 100.409C178.375 100.373 178.4 100.342 178.43 100.318C178.46 100.293 178.495 100.275 178.531 100.264C178.568 100.254 178.607 100.252 178.644 100.258C178.813 100.281 178.904 100.436 178.88 100.605L178.551 102.934C178.547 102.974 178.535 103.013 178.517 103.049C178.498 103.084 178.473 103.115 178.443 103.14C178.413 103.165 178.378 103.183 178.341 103.193C178.304 103.203 178.266 103.205 178.228 103.199C178.06 103.178 177.969 103.021 177.993 102.852L177.993 102.85ZM138.012 95.9889L138.344 93.7908C138.368 93.6306 138.459 93.514 138.609 93.5341C138.76 93.5542 138.812 93.6972 138.788 93.8574L138.456 96.0573C138.432 96.2179 138.341 96.3345 138.19 96.3131C138.04 96.2917 137.988 96.1505 138.012 95.9911L138.012 95.9889ZM178.65 98.1995L178.979 95.8782C178.983 95.838 178.994 95.799 179.013 95.7635C179.031 95.7281 179.056 95.6969 179.086 95.6719C179.117 95.647 179.151 95.6287 179.188 95.6183C179.225 95.6078 179.263 95.6054 179.301 95.6112C179.469 95.6329 179.56 95.7869 179.537 95.9558L179.208 98.2793C179.205 98.3196 179.193 98.3587 179.174 98.3942C179.156 98.4297 179.131 98.4608 179.1 98.4858C179.07 98.5107 179.036 98.5289 178.999 98.5393C178.962 98.5496 178.923 98.5518 178.886 98.5459C178.717 98.5255 178.627 98.371 178.65 98.2017L178.65 98.1995ZM138.675 91.5953L139.006 89.4019C139.031 89.2421 139.121 89.1242 139.272 89.1439C139.423 89.1635 139.474 89.3044 139.45 89.4642L139.119 91.6597C139.095 91.8199 139.005 91.937 138.853 91.9173C138.702 91.8976 138.651 91.7572 138.675 91.5974L138.675 91.5953ZM179.306 93.5599L179.631 91.2449C179.636 91.2047 179.647 91.1657 179.666 91.1303C179.684 91.0949 179.71 91.0637 179.74 91.0386C179.77 91.0136 179.804 90.9951 179.841 90.9844C179.877 90.9736 179.916 90.9708 179.953 90.9761C180.122 90.997 180.213 91.1493 180.19 91.3182L179.864 93.6367C179.86 93.6769 179.848 93.7158 179.83 93.7512C179.811 93.7866 179.786 93.8178 179.756 93.8428C179.726 93.8678 179.691 93.8862 179.655 93.8969C179.618 93.9076 179.579 93.9103 179.542 93.905C179.373 93.8837 179.282 93.7305 179.306 93.5621L179.306 93.5599ZM139.337 87.2093L139.668 85.0207C139.692 84.8613 139.782 84.7425 139.933 84.7609C140.084 84.7792 140.136 84.9197 140.112 85.079L139.781 87.2699C139.757 87.4297 139.666 87.548 139.515 87.5288C139.364 87.5095 139.313 87.3726 139.337 87.2128L139.337 87.2093ZM179.959 88.93L180.284 86.6189C180.288 86.5785 180.3 86.5394 180.318 86.5038C180.337 86.4682 180.361 86.4369 180.392 86.4116C180.422 86.3864 180.456 86.3678 180.493 86.3569C180.53 86.346 180.568 86.3431 180.606 86.3483C180.775 86.3679 180.866 86.5189 180.842 86.6874L180.517 89.0025C180.513 89.0428 180.501 89.082 180.483 89.1176C180.464 89.1532 180.439 89.1845 180.409 89.2097C180.379 89.2349 180.344 89.2535 180.308 89.2643C180.271 89.275 180.232 89.2779 180.195 89.2725C180.028 89.2522 179.937 89.1003 179.96 88.9318L179.959 88.93ZM139.996 82.8353L140.326 80.6505C140.35 80.4911 140.441 80.3719 140.591 80.3894C140.742 80.4069 140.794 80.5456 140.77 80.705L140.44 82.8898C140.417 83.0492 140.326 83.1684 140.175 83.15C140.024 83.1316 139.973 82.9987 139.997 82.8371L139.996 82.8353ZM180.612 84.3101L180.856 82.5751C180.881 82.4007 180.861 82.2222 180.857 82.0488C180.853 81.8753 180.958 81.7333 181.128 81.7244C181.297 81.7155 181.441 81.8456 181.445 82.0147C181.452 82.2233 181.442 82.4324 181.414 82.6393L181.17 84.3765C181.166 84.417 181.155 84.4564 181.136 84.4923C181.118 84.5282 181.093 84.5598 181.063 84.5853C181.033 84.6109 180.998 84.6298 180.961 84.641C180.924 84.6522 180.886 84.6554 180.848 84.6505C180.681 84.6301 180.59 84.48 180.613 84.3119L180.612 84.3101ZM140.655 78.4691L140.719 78.0467C140.811 77.3995 141.063 76.7884 141.449 76.2761C141.547 76.1479 141.701 76.1206 141.819 76.2155C141.938 76.3104 141.932 76.4909 141.834 76.6187C141.504 77.0501 141.245 77.5593 141.164 78.0987L141.1 78.5215C141.076 78.6804 140.985 78.8005 140.834 78.783C140.683 78.7655 140.632 78.629 140.656 78.4709L140.655 78.4691ZM180.096 80.1265C179.629 79.587 179.006 79.2284 178.324 79.1066C178.286 79.1011 178.25 79.0874 178.217 79.0663C178.184 79.0453 178.156 79.0173 178.134 78.9841C178.112 78.9509 178.097 78.9132 178.09 78.8734C178.082 78.8336 178.082 78.7924 178.09 78.7526C178.111 78.6711 178.161 78.6008 178.228 78.5555C178.295 78.5102 178.376 78.4932 178.454 78.5079C179.268 78.6528 180.012 79.0799 180.57 79.7229C180.595 79.753 180.614 79.7885 180.626 79.8271C180.638 79.8656 180.642 79.9063 180.638 79.9468C180.634 79.9872 180.622 80.0263 180.603 80.0618C180.584 80.0973 180.559 80.1283 180.528 80.1529C180.461 80.2098 180.375 80.2364 180.29 80.2271C180.216 80.2201 180.148 80.185 180.097 80.1283L180.096 80.1265ZM143.157 75.3134C143.143 75.2368 143.157 75.1569 143.196 75.0907C143.236 75.0244 143.299 74.9769 143.37 74.9582C143.782 74.8429 144.209 74.8071 144.631 74.8526L145.568 74.9538C145.604 74.957 145.638 74.9679 145.67 74.986C145.701 75.0041 145.729 75.0289 145.751 75.0589C145.772 75.0888 145.788 75.1233 145.797 75.1602C145.806 75.1971 145.807 75.2355 145.801 75.2732C145.788 75.3511 145.748 75.4212 145.689 75.4693C145.629 75.5173 145.555 75.5398 145.481 75.5321L144.544 75.4306C144.19 75.3919 143.832 75.4215 143.487 75.518C143.454 75.5274 143.419 75.5304 143.385 75.5269C143.331 75.5215 143.28 75.4983 143.239 75.4603C143.199 75.4223 143.17 75.3716 143.158 75.3153L143.157 75.3134ZM147.348 75.44C147.361 75.3617 147.401 75.2913 147.461 75.2431C147.52 75.1948 147.595 75.1723 147.669 75.1802L149.783 75.408C149.819 75.4111 149.853 75.422 149.885 75.44C149.917 75.458 149.944 75.4828 149.967 75.5127C149.989 75.5427 150.005 75.5772 150.014 75.6142C150.023 75.6511 150.025 75.6897 150.019 75.7276C150.006 75.8062 149.966 75.8769 149.906 75.9253C149.845 75.9737 149.771 75.9961 149.696 75.9881L147.583 75.7586C147.547 75.7552 147.513 75.7442 147.482 75.7263C147.451 75.7083 147.423 75.6838 147.401 75.6541C147.38 75.6245 147.364 75.5904 147.355 75.5539C147.346 75.5174 147.344 75.4792 147.349 75.4418L147.348 75.44ZM151.585 75.9001C151.599 75.8212 151.639 75.7503 151.7 75.7018C151.76 75.6533 151.835 75.6308 151.91 75.6389L154.049 75.8692C154.085 75.8724 154.12 75.8834 154.152 75.9016C154.184 75.9198 154.212 75.9448 154.235 75.9751C154.257 76.0054 154.273 76.0404 154.283 76.0777C154.292 76.1151 154.294 76.1542 154.288 76.1925C154.275 76.2718 154.234 76.343 154.173 76.3917C154.113 76.4404 154.037 76.4629 153.962 76.4545L151.823 76.222C151.787 76.219 151.752 76.208 151.72 76.1899C151.688 76.1718 151.661 76.1468 151.638 76.1167C151.616 76.0865 151.6 76.0517 151.591 76.0144C151.582 75.9772 151.58 75.9383 151.585 75.9001ZM155.872 76.3632C155.885 76.2837 155.927 76.2122 155.987 76.1635C156.048 76.1147 156.124 76.0923 156.2 76.1009L158.364 76.3339C158.4 76.3369 158.436 76.3479 158.468 76.3661C158.501 76.3844 158.529 76.4095 158.552 76.44C158.575 76.4705 158.591 76.5057 158.601 76.5434C158.61 76.5811 158.612 76.6205 158.607 76.6592C158.593 76.7392 158.552 76.8109 158.491 76.8599C158.429 76.9088 158.353 76.9313 158.277 76.9227L156.113 76.6875C156.076 76.6845 156.041 76.6735 156.009 76.6553C155.977 76.6371 155.948 76.612 155.926 76.5816C155.903 76.5512 155.887 76.5161 155.877 76.4786C155.868 76.441 155.866 76.4018 155.872 76.3632ZM160.209 76.8325C160.223 76.7524 160.265 76.6805 160.326 76.6315C160.388 76.5825 160.464 76.5601 160.54 76.5687L162.73 76.8048C162.767 76.8077 162.803 76.8186 162.836 76.8368C162.869 76.8551 162.898 76.8804 162.921 76.911C162.944 76.9417 162.961 76.9771 162.971 77.0152C162.98 77.0532 162.982 77.093 162.977 77.1321C162.963 77.2127 162.921 77.285 162.859 77.3341C162.797 77.3833 162.72 77.4057 162.644 77.3967L160.454 77.1567C160.418 77.1537 160.382 77.1428 160.35 77.1247C160.317 77.1067 160.289 77.0817 160.266 77.0514C160.243 77.0211 160.226 76.9861 160.216 76.9486C160.207 76.911 160.204 76.8717 160.209 76.833L160.209 76.8325ZM164.599 77.3077C164.613 77.2267 164.655 77.1541 164.717 77.1047C164.779 77.0553 164.857 77.0329 164.933 77.0419L167.15 77.2807C167.187 77.2836 167.223 77.2945 167.257 77.3129C167.29 77.3312 167.319 77.3566 167.342 77.3875C167.366 77.4184 167.383 77.4541 167.393 77.4924C167.403 77.5307 167.405 77.5709 167.4 77.6104C167.386 77.6917 167.343 77.7646 167.281 77.8141C167.218 77.8636 167.141 77.8861 167.064 77.8769L164.847 77.635C164.81 77.6322 164.774 77.6213 164.741 77.603C164.708 77.5848 164.68 77.5596 164.656 77.529C164.633 77.4984 164.616 77.463 164.606 77.425C164.596 77.387 164.594 77.3473 164.599 77.3081L164.599 77.3077ZM169.043 77.7883C169.057 77.7066 169.099 77.6335 169.162 77.5839C169.225 77.5343 169.303 77.5119 169.381 77.5215L171.624 77.7631C171.661 77.7657 171.698 77.7766 171.732 77.795C171.765 77.8134 171.795 77.8389 171.818 77.87C171.842 77.901 171.86 77.937 171.87 77.9756C171.88 78.0143 171.883 78.0548 171.878 78.0947C171.863 78.1768 171.82 78.2502 171.757 78.3C171.694 78.3499 171.615 78.3723 171.538 78.3627L169.295 78.1189C169.257 78.1163 169.22 78.1055 169.187 78.0873C169.153 78.069 169.124 78.0436 169.1 78.0126C169.077 77.9817 169.059 77.9458 169.049 77.9073C169.039 77.8688 169.036 77.8284 169.041 77.7886L169.043 77.7883ZM173.539 78.2765C173.553 78.1942 173.597 78.1206 173.66 78.0707C173.724 78.0208 173.802 77.9985 173.88 78.0082L176.151 78.2539C176.189 78.2566 176.226 78.2675 176.26 78.2859C176.294 78.3044 176.324 78.3301 176.348 78.3614C176.372 78.3926 176.39 78.4289 176.4 78.4678C176.411 78.5068 176.414 78.5477 176.409 78.588C176.394 78.6708 176.35 78.7449 176.286 78.795C176.222 78.845 176.143 78.8674 176.064 78.8574L173.793 78.6117C173.755 78.6091 173.718 78.5981 173.684 78.5795C173.65 78.5609 173.62 78.5349 173.596 78.5033C173.572 78.4717 173.554 78.4352 173.544 78.3959C173.534 78.3566 173.532 78.3155 173.538 78.2751L173.539 78.2765Z" fill="white"/>
</g>
<path d="M136.677 84.1198C136.798 84.0514 136.931 84.0146 137.067 84.0128C137.203 84.0109 137.337 84.044 137.458 84.1091L145.195 88.306C146.305 88.9133 147.001 90.2032 146.804 91.5242L146.28 95.0375C146.071 96.4433 144.914 97.5493 143.575 97.7655L135.17 99.1122C135.038 99.1335 134.903 99.1221 134.777 99.0788C134.65 99.0355 134.535 98.9616 134.44 98.8628C134.347 98.7645 134.277 98.6443 134.235 98.5115C134.194 98.3788 134.182 98.2373 134.201 98.0984L136.218 84.8084C136.238 84.6637 136.29 84.5258 136.37 84.4061C136.45 84.2864 136.555 84.1883 136.677 84.1198Z" fill="url(#paint35_linear)"/>
<path d="M141.394 92.5157C141.359 92.7458 141.368 92.9807 141.421 93.2063C141.473 93.4319 141.567 93.6436 141.698 93.8289C141.83 94.0142 141.995 94.1692 142.184 94.2847C142.373 94.4002 142.583 94.4739 142.8 94.5013C143.725 94.6268 144.595 93.9371 144.74 92.961C144.775 92.7303 144.766 92.4949 144.713 92.2688C144.66 92.0428 144.565 91.8308 144.433 91.6455C144.301 91.4602 144.135 91.3054 143.945 91.1904C143.755 91.0753 143.545 91.0025 143.327 90.9761C142.405 90.8557 141.541 91.545 141.394 92.5157Z" fill="url(#paint36_linear)"/>
</g>
<defs>
<linearGradient id="paint0_linear" x1="69.7913" y1="-24.7858" x2="104.398" y2="145.862" gradientUnits="userSpaceOnUse">
<stop stop-color="#65eb8b"/>
<stop offset="1" stop-color="#2da34f"/>
</linearGradient>
<linearGradient id="paint1_linear" x1="204.964" y1="69.2417" x2="184.224" y2="109.976" gradientUnits="userSpaceOnUse">
<stop stop-color="#fa9e14"/>
<stop offset="1" stop-color="#fa9e14"/>
</linearGradient>
<linearGradient id="paint2_linear" x1="196.038" y1="91.9997" x2="169.016" y2="132.908" gradientUnits="userSpaceOnUse">
<stop stop-color="#FCC660"/>
<stop offset="1" stop-color="#FE9374"/>
</linearGradient>
<linearGradient id="paint3_linear" x1="198.581" y1="68.5097" x2="132.692" y2="65.1363" gradientUnits="userSpaceOnUse">
<stop stop-color="#444B8C"/>
<stop offset="1" stop-color="#26264F"/>
</linearGradient>
<linearGradient id="paint4_linear" x1="15379" y1="283778" x2="-97840.6" y2="317923" gradientUnits="userSpaceOnUse">
<stop stop-color="#AA80F9"/>
<stop offset="1" stop-color="#6165D7"/>
</linearGradient>
<linearGradient id="paint5_linear" x1="7681.53" y1="42856.8" x2="-8145.78" y2="48642.9" gradientUnits="userSpaceOnUse">
<stop stop-color="#AA80F9"/>
<stop offset="1" stop-color="#6165D7"/>
</linearGradient>
<linearGradient id="paint6_linear" x1="16045.6" y1="48913.4" x2="2307.95" y2="55088.4" gradientUnits="userSpaceOnUse">
<stop stop-color="#AA80F9"/>
<stop offset="1" stop-color="#6165D7"/>
</linearGradient>
<linearGradient id="paint7_linear" x1="10426.3" y1="35986" x2="-3039.47" y2="42056.5" gradientUnits="userSpaceOnUse">
<stop stop-color="#AA80F9"/>
<stop offset="1" stop-color="#6165D7"/>
</linearGradient>
<linearGradient id="paint8_linear" x1="6276.87" y1="34519.7" x2="-9791.69" y2="40402.4" gradientUnits="userSpaceOnUse">
<stop stop-color="#AA80F9"/>
<stop offset="1" stop-color="#6165D7"/>
</linearGradient>
<linearGradient id="paint9_linear" x1="-11466.3" y1="81397.7" x2="-18201.2" y2="83080.2" gradientUnits="userSpaceOnUse">
<stop stop-color="#AA80F9"/>
<stop offset="1" stop-color="#6165D7"/>
</linearGradient>
<linearGradient id="paint10_linear" x1="33987.3" y1="299949" x2="-14219" y2="237060" gradientUnits="userSpaceOnUse">
<stop stop-color="#AA80F9"/>
<stop offset="1" stop-color="#6165D7"/>
</linearGradient>
<linearGradient id="paint11_linear" x1="148.495" y1="36.9681" x2="165.107" y2="87.7057" gradientUnits="userSpaceOnUse">
<stop stop-color="#311944"/>
<stop offset="1" stop-color="#893976"/>
</linearGradient>
<linearGradient id="paint12_linear" x1="167.992" y1="84.8213" x2="148.537" y2="11.6664" gradientUnits="userSpaceOnUse">
<stop stop-color="#E38DDD"/>
<stop offset="1" stop-color="#9571F6"/>
</linearGradient>
<linearGradient id="paint13_linear" x1="177.658" y1="86.7887" x2="158.433" y2="67.2185" gradientUnits="userSpaceOnUse">
<stop stop-color="#F68252"/>
<stop offset="0.04" stop-color="#F99A4D"/>
<stop offset="0.08" stop-color="#FCAD49"/>
<stop offset="0.13" stop-color="#FEBA46"/>
<stop offset="0.2" stop-color="#FFC244"/>
<stop offset="0.32" stop-color="#FFC444"/>
<stop offset="0.45" stop-color="#FDB946"/>
<stop offset="0.69" stop-color="#F99C4C"/>
<stop offset="1" stop-color="#F36F56"/>
</linearGradient>
<linearGradient id="paint14_linear" x1="-3470.16" y1="56627.2" x2="-3626.93" y2="55928.5" gradientUnits="userSpaceOnUse">
<stop stop-color="#FF9085"/>
<stop offset="1" stop-color="#FB6FBB"/>
</linearGradient>
<linearGradient id="paint15_linear" x1="-9151.33" y1="20451.6" x2="-9198.78" y2="20240.1" gradientUnits="userSpaceOnUse">
<stop stop-color="#FF9085"/>
<stop offset="1" stop-color="#FB6FBB"/>
</linearGradient>
<linearGradient id="paint16_linear" x1="-9275.4" y1="20458.6" x2="-9322.8" y2="20247.2" gradientUnits="userSpaceOnUse">
<stop stop-color="#FF9085"/>
<stop offset="1" stop-color="#FB6FBB"/>
</linearGradient>
<linearGradient id="paint17_linear" x1="-9399.69" y1="20464.8" x2="-9447.05" y2="20253.7" gradientUnits="userSpaceOnUse">
<stop stop-color="#FF9085"/>
<stop offset="1" stop-color="#FB6FBB"/>
</linearGradient>
<linearGradient id="paint18_linear" x1="-412.929" y1="40466.2" x2="-478.092" y2="40175.8" gradientUnits="userSpaceOnUse">
<stop stop-color="#FF9085"/>
<stop offset="1" stop-color="#FB6FBB"/>
</linearGradient>
<linearGradient id="paint19_linear" x1="159.266" y1="87.224" x2="140.405" y2="16.3024" gradientUnits="userSpaceOnUse">
<stop stop-color="#FB6FBB"/>
<stop offset="1" stop-color="#FF9085"/>
</linearGradient>
<linearGradient id="paint20_linear" x1="-21566.6" y1="59276.3" x2="-21871.5" y2="57917.6" gradientUnits="userSpaceOnUse">
<stop stop-color="#FB6FBB"/>
<stop offset="1" stop-color="#FF9085"/>
</linearGradient>
<linearGradient id="paint21_linear" x1="-29753.7" y1="69947.7" x2="-30232.9" y2="67811.8" gradientUnits="userSpaceOnUse">
<stop stop-color="#FB6FBB"/>
<stop offset="1" stop-color="#FF9085"/>
</linearGradient>
<linearGradient id="paint22_linear" x1="-9633.9" y1="61201.1" x2="-9747.37" y2="60054.2" gradientUnits="userSpaceOnUse">
<stop stop-color="#FF9085"/>
<stop offset="1" stop-color="#FB6FBB"/>
</linearGradient>
<linearGradient id="paint23_linear" x1="175.345" y1="70.7047" x2="189.522" y2="76.0893" gradientUnits="userSpaceOnUse">
<stop stop-color="#FCB148"/>
<stop offset="0.05" stop-color="#FDBA46"/>
<stop offset="0.14" stop-color="#FFC244"/>
<stop offset="0.32" stop-color="#FFC444"/>
<stop offset="0.48" stop-color="#FDB946"/>
<stop offset="0.78" stop-color="#F99C4D"/>
<stop offset="0.87" stop-color="#F8924F"/>
<stop offset="1" stop-color="#F8924F"/>
</linearGradient>
<linearGradient id="paint24_linear" x1="164.819" y1="54.7246" x2="176.915" y2="85.0713" gradientUnits="userSpaceOnUse">
<stop stop-color="#FFDB44"/>
<stop offset="1" stop-color="#FEEF06"/>
</linearGradient>
<linearGradient id="paint25_linear" x1="20107.1" y1="47330.8" x2="19030" y2="38811.1" gradientUnits="userSpaceOnUse">
<stop stop-color="#FCB148"/>
<stop offset="0.05" stop-color="#FDBA46"/>
<stop offset="0.14" stop-color="#FFC244"/>
<stop offset="0.32" stop-color="#FFC444"/>
<stop offset="0.48" stop-color="#FDB946"/>
<stop offset="0.78" stop-color="#F99C4D"/>
<stop offset="0.87" stop-color="#F8924F"/>
<stop offset="1" stop-color="#F8924F"/>
</linearGradient>
<linearGradient id="paint26_linear" x1="17426.3" y1="32302.3" x2="23003.5" y2="45427.6" gradientUnits="userSpaceOnUse">
<stop stop-color="#FCB148"/>
<stop offset="0.05" stop-color="#FDBA46"/>
<stop offset="0.14" stop-color="#FFC244"/>
<stop offset="0.32" stop-color="#FFC444"/>
<stop offset="0.48" stop-color="#FDB946"/>
<stop offset="0.78" stop-color="#F99C4D"/>
<stop offset="0.87" stop-color="#F8924F"/>
<stop offset="1" stop-color="#F8924F"/>
</linearGradient>
<linearGradient id="paint27_linear" x1="8543.57" y1="32446.1" x2="15748" y2="42197.1" gradientUnits="userSpaceOnUse">
<stop stop-color="#FCB148"/>
<stop offset="0.05" stop-color="#FDBA46"/>
<stop offset="0.14" stop-color="#FFC244"/>
<stop offset="0.32" stop-color="#FFC444"/>
<stop offset="0.48" stop-color="#FDB946"/>
<stop offset="0.78" stop-color="#F99C4D"/>
<stop offset="0.87" stop-color="#F8924F"/>
<stop offset="1" stop-color="#F8924F"/>
</linearGradient>
<linearGradient id="paint28_linear" x1="11393.8" y1="14438.4" x2="7314.58" y2="15342.8" gradientUnits="userSpaceOnUse">
<stop stop-color="#FCB148"/>
<stop offset="0.05" stop-color="#FDBA46"/>
<stop offset="0.14" stop-color="#FFC244"/>
<stop offset="0.32" stop-color="#FFC444"/>
<stop offset="0.48" stop-color="#FDB946"/>
<stop offset="0.78" stop-color="#F99C4D"/>
<stop offset="0.87" stop-color="#F8924F"/>
<stop offset="1" stop-color="#F8924F"/>
</linearGradient>
<linearGradient id="paint29_linear" x1="14878.6" y1="10413" x2="10298.4" y2="18297.9" gradientUnits="userSpaceOnUse">
<stop stop-color="#FFDB44"/>
<stop offset="1" stop-color="#FEEF06"/>
</linearGradient>
<linearGradient id="paint30_linear" x1="12996" y1="18367.3" x2="12507.4" y2="14502.8" gradientUnits="userSpaceOnUse">
<stop stop-color="#FCB148"/>
<stop offset="0.05" stop-color="#FDBA46"/>
<stop offset="0.14" stop-color="#FFC244"/>
<stop offset="0.32" stop-color="#FFC444"/>
<stop offset="0.48" stop-color="#FDB946"/>
<stop offset="0.78" stop-color="#F99C4D"/>
<stop offset="0.87" stop-color="#F8924F"/>
<stop offset="1" stop-color="#F8924F"/>
</linearGradient>
<linearGradient id="paint31_linear" x1="11651.3" y1="11656.2" x2="14180.9" y2="17610" gradientUnits="userSpaceOnUse">
<stop stop-color="#FCB148"/>
<stop offset="0.05" stop-color="#FDBA46"/>
<stop offset="0.14" stop-color="#FFC244"/>
<stop offset="0.32" stop-color="#FFC444"/>
<stop offset="0.48" stop-color="#FDB946"/>
<stop offset="0.78" stop-color="#F99C4D"/>
<stop offset="0.87" stop-color="#F8924F"/>
<stop offset="1" stop-color="#F8924F"/>
</linearGradient>
<linearGradient id="paint32_linear" x1="6241.35" y1="11634.2" x2="9509.47" y2="16057.5" gradientUnits="userSpaceOnUse">
<stop stop-color="#FCB148"/>
<stop offset="0.05" stop-color="#FDBA46"/>
<stop offset="0.14" stop-color="#FFC244"/>
<stop offset="0.32" stop-color="#FFC444"/>
<stop offset="0.48" stop-color="#FDB946"/>
<stop offset="0.78" stop-color="#F99C4D"/>
<stop offset="0.87" stop-color="#F8924F"/>
<stop offset="1" stop-color="#F8924F"/>
</linearGradient>
<linearGradient id="paint33_linear" x1="156.407" y1="31.0424" x2="162.362" y2="149.676" gradientUnits="userSpaceOnUse">
<stop stop-color="#AB316D"/>
<stop offset="1" stop-color="#792D3D"/>
</linearGradient>
<linearGradient id="paint34_linear" x1="201938" y1="45690.3" x2="-3245.25" y2="116949" gradientUnits="userSpaceOnUse">
<stop stop-color="#AB316D"/>
<stop offset="1" stop-color="#792D3D"/>
</linearGradient>
<linearGradient id="paint35_linear" x1="30513" y1="26571.6" x2="12521.8" y2="30633.5" gradientUnits="userSpaceOnUse">
<stop stop-color="#AB316D"/>
<stop offset="1" stop-color="#792D3D"/>
</linearGradient>
<linearGradient id="paint36_linear" x1="132.613" y1="87.669" x2="146.598" y2="93.7637" gradientUnits="userSpaceOnUse">
<stop stop-color="#FFC444"/>
<stop offset="1" stop-color="#F36F56"/>
</linearGradient>
<clipPath id="clip0">
<rect width="84.54" height="115" fill="white" transform="translate(126.038 6) rotate(4.00805)"/>
</clipPath>
</defs>
</svg>
