<svg width="400" height="560" viewBox="0 0 217 381" fill="none" xmlns="http://www.w3.org/2000/svg">
  <style type="text/css">
    .fall{font-family:"Montserrat", sans-serif;}
  </style>
<path d="M-15.9811 13.991C10.8528 43.269 25.8138 66.5098 72.7623 48.3302C127.726 30.1506 144.417 57.2656 186.698 54.428C277.558 48.3302 265.562 79.4828 298.051 95.664C330.978 112.063 397.518 154.647 335.539 232.422C273.56 310.196 279.058 389.536 236.572 377.531C206.083 368.915 226.203 345.606 186.698 329.447C160.126 318.578 150.176 338.361 121.611 344.646C107.707 347.706 87.485 346.319 62.4564 339.041C10.3553 323.892 -0.522614 390.045 -54.3413 379.945C-108.16 369.846 -27.838 180.224 -85.3181 95.664C-144.375 8.78488 -47.3313 -20.2145 -15.9811 13.991Z" fill="url(#paint0_linear)"/>
<path d="M22.3779 113H12.5V74.9238L0.708008 78.5811V70.5488L21.3184 63.166H22.3779V113Z" fill="#fff" fill-opacity="1" style="mix-blend-mode:color-dodge"/>
<path id="try1" d="M28 85.1 220 85.1" fill="none" stroke="none"/>
<path id="try2" d="M53 100.1 212 100.1" fill="none" stroke="none"/>
<path id="try3" d="M8.5 136 171 136" fill="none" stroke="none"/>
<path id="try4" d="M8.5 152 187 152" fill="none" stroke="none"/>
<path id="try5" d="M8.5 168 187 168" fill="none" stroke="none"/>
<path id="try6" d="M8.5 184 185 184" fill="none" stroke="none"/>
<path id="try7" d="M55 216 209 216" fill="none" stroke="none"/>
<path id="try8" d="M75 231 209 231" fill="none" stroke="none"/>
<path id="try9" d="M7.5 267 180 267" fill="none" stroke="none"/>
<path id="try10" d="M7.5 282 181 282" fill="none" stroke="none"/>
<path id="try11" d="M7.5 297 184 297" fill="none" stroke="none"/>
<path id="try12" d="M7.5 312 152 312" fill="none" stroke="none"/>
<path id="try13" d="M7.5 327 75 327" fill="none" stroke="none"/>

<use href="#try1"/>
<text x="0" y="85.1" fill="white" style="font-size:0.771em;;font-weight:100" class="fall">
<textPath href="#try1">
Ви можете отримувати по <tspan font-weight="bold">30.5&#36;</tspan>
</textPath>
</text>
<use href="#try2"/>
<text x="0" y="0" fill="white" style="font-size:0.771em;;font-weight:100" class="fall">
<textPath href="#try2">
<tspan font-weight="bold">у місяць</tspan> легко та без зусіль
</textPath>
</text>
<use href="#try3"/>
<text x="0" y="0" fill="white" style="font-size:0.771em;;font-weight:100" class="fall">
<textPath href="#try3">
Ніхто не буде змінювати ваш
</textPath>
</text>
<use href="#try4"/>
<text x="0" y="0" fill="white" style="font-size:0.771em;;font-weight:100" class="fall">
<textPath href="#try4">
пароль - нам <tspan font-weight="bold">потрібен тільки</tspan>
</textPath>
</text>
<use href="#try5"/>
<text x="0" y="0" fill="white" style="font-size:0.771em;;font-weight:100" class="fall">
<textPath href="#try5">
<tspan font-weight="bold">рекламний кабінет</tspan>, який
</textPath>
</text>
<use href="#try6"/>
<text x="0" y="0" fill="white" style="font-size:0.771em;;font-weight:100" class="fall">
<textPath href="#try6">
прив'язаний до вашої сторінки
</textPath>
</text><use href="#try7"/>
<text x="0" y="0" fill="white" style="font-size:0.771em;;font-weight:100" class="fall">
<textPath href="#try7">
<tspan font-weight="bold">Кожного тижня робимо</tspan>
</textPath>
</text>
<use href="#try8"/>
<text x="0" y="0" fill="white" style="font-size:0.771em;;font-weight:100" class="fall">
<textPath href="#try8">
<tspan font-weight="bold">виплату на рахунок</tspan>
</textPath>
</text>
<use href="#try9"/>
<text x="0" y="0" fill="white" style="font-size:0.771em;;font-weight:100" class="fall">
<textPath href="#try9">
<tspan font-weight="bold">Ніяких постів від вашого</tspan>
</textPath>
</text>
<use href="#try10"/>
<text x="0" y="0" fill="white" style="font-size:0.771em;;font-weight:100" class="fall">
<textPath href="#try10">
<tspan font-weight="bold">імені</tspan> та спаму - ваші друзі
</textPath>
</text>
<use href="#try11"/>
<text x="0" y="0" fill="white" style="font-size:0.771em;;font-weight:100" class="fall">
<textPath href="#try11">
взагалі не здогадаються, що ви
</textPath>
</text>
<use href="#try12"/>
<text x="0" y="0" fill="white" style="font-size:0.771em;;font-weight:100" class="fall">
<textPath href="#try12">
заробляєте на своїй
</textPath>
</text>
<use href="#try13"/>
<text x="0" y="0" fill="white" style="font-size:0.771em;;font-weight:100" class="fall">
<textPath href="#try13">
сторінці.
</textPath>
</text>


<path d="M5.43262 213.742H10.6963C13.2028 213.742 15.0599 213.116 16.2676 211.862C17.4753 210.609 18.0791 208.946 18.0791 206.872C18.0791 204.867 17.4753 203.306 16.2676 202.189C15.0827 201.073 13.4421 200.515 11.3457 200.515C9.45443 200.515 7.87077 201.039 6.59473 202.087C5.31868 203.112 4.68066 204.457 4.68066 206.12H-5.19727C-5.19727 203.522 -4.50228 201.198 -3.1123 199.147C-1.69954 197.074 0.260091 195.456 2.7666 194.294C5.2959 193.132 8.07585 192.551 11.1064 192.551C16.3701 192.551 20.4945 193.815 23.4795 196.345C26.4645 198.851 27.957 202.315 27.957 206.735C27.957 209.014 27.262 211.11 25.8721 213.024C24.4821 214.938 22.6592 216.408 20.4033 217.434C23.2061 218.436 25.291 219.94 26.6582 221.945C28.0482 223.951 28.7432 226.32 28.7432 229.055C28.7432 233.475 27.1253 237.019 23.8896 239.685C20.6768 242.351 16.4157 243.684 11.1064 243.684C6.139 243.684 2.07161 242.373 -1.0957 239.753C-4.24023 237.132 -5.8125 233.669 -5.8125 229.362H4.06543C4.06543 231.231 4.76042 232.757 6.15039 233.942C7.56315 235.127 9.29492 235.72 11.3457 235.72C13.6927 235.72 15.527 235.104 16.8486 233.874C18.193 232.621 18.8652 230.969 18.8652 228.918C18.8652 223.951 16.1309 221.467 10.6621 221.467H5.43262V213.742Z" fill="#fff" fill-opacity="1" style="mix-blend-mode:color-dodge"/>
<path d="M222.3 178H188.188V171.232L204.287 154.074C206.497 151.659 208.127 149.551 209.175 147.751C210.246 145.951 210.781 144.242 210.781 142.624C210.781 140.414 210.223 138.682 209.106 137.429C207.99 136.153 206.395 135.515 204.321 135.515C202.088 135.515 200.322 136.289 199.023 137.839C197.747 139.366 197.109 141.382 197.109 143.889H187.197C187.197 140.858 187.915 138.09 189.351 135.583C190.809 133.076 192.86 131.117 195.503 129.704C198.146 128.269 201.143 127.551 204.492 127.551C209.619 127.551 213.595 128.781 216.421 131.242C219.269 133.703 220.693 137.178 220.693 141.667C220.693 144.128 220.055 146.634 218.779 149.187C217.503 151.739 215.316 154.712 212.217 158.107L200.903 170.036H222.3V178Z" fill="#fff" fill-opacity="1" style="mix-blend-mode:color-dodge"/>
<path d="M217.412 296.27H223.052V304.233H217.412V315H207.534V304.233H187.129L186.685 298.013L207.432 265.234H217.412V296.27ZM196.528 296.27H207.534V278.701L206.885 279.829L196.528 296.27Z" fill="#fff" fill-opacity="1" style="mix-blend-mode:color-dodge"/>
<path d="M40.2305 42.9484C7.83054 54.9484 -43.6028 47.9484 -65.2695 42.9484C-88.2695 33.2817 -126.869 28.3484 -97.2695 85.9484C-60.2695 157.948 -114.269 325.448 -50.2695 345.948C13.7305 366.448 40.2305 336.948 97.7305 330.448C155.231 323.948 163.231 343.448 252.231 367.948C341.231 392.448 272.731 65.9484 210.231 68.9484C147.731 71.9484 80.7305 27.9484 40.2305 42.9484Z" stroke="url(#paint1_linear)" stroke-width="0.5" stroke-linecap="round" stroke-linejoin="round"/>
<defs>
<linearGradient id="paint0_linear" x1="109.116" y1="-10.8189" x2="109.116" y2="395.075" gradientUnits="userSpaceOnUse">
<stop stop-color="#65eb8b"/>
<stop offset="1" stop-color="#2da34f"/>
</linearGradient>
<linearGradient id="paint1_linear" x1="93.4102" y1="37" x2="164.23" y2="350.448" gradientUnits="userSpaceOnUse">
<stop stop-color="#2da34f"/>
<stop offset="1" stop-color="#65eb8b"/>
</linearGradient>
</defs>
</svg>
